%TF.GenerationSoftware,KiCad,Pcbnew,9.0.3*%
%TF.CreationDate,2025-10-13T14:24:37+01:00*%
%TF.ProjectId,Charging circuit,43686172-6769-46e6-9720-636972637569,rev?*%
%TF.SameCoordinates,Original*%
%TF.FileFunction,Copper,L1,Top*%
%TF.FilePolarity,Positive*%
%FSLAX46Y46*%
G04 Gerber Fmt 4.6, Leading zero omitted, Abs format (unit mm)*
G04 Created by KiCad (PCBNEW 9.0.3) date 2025-10-13 14:24:37*
%MOMM*%
%LPD*%
G01*
G04 APERTURE LIST*
G04 Aperture macros list*
%AMRoundRect*
0 Rectangle with rounded corners*
0 $1 Rounding radius*
0 $2 $3 $4 $5 $6 $7 $8 $9 X,Y pos of 4 corners*
0 Add a 4 corners polygon primitive as box body*
4,1,4,$2,$3,$4,$5,$6,$7,$8,$9,$2,$3,0*
0 Add four circle primitives for the rounded corners*
1,1,$1+$1,$2,$3*
1,1,$1+$1,$4,$5*
1,1,$1+$1,$6,$7*
1,1,$1+$1,$8,$9*
0 Add four rect primitives between the rounded corners*
20,1,$1+$1,$2,$3,$4,$5,0*
20,1,$1+$1,$4,$5,$6,$7,0*
20,1,$1+$1,$6,$7,$8,$9,0*
20,1,$1+$1,$8,$9,$2,$3,0*%
G04 Aperture macros list end*
%TA.AperFunction,SMDPad,CuDef*%
%ADD10RoundRect,0.225000X-0.225000X-0.375000X0.225000X-0.375000X0.225000X0.375000X-0.225000X0.375000X0*%
%TD*%
%TA.AperFunction,SMDPad,CuDef*%
%ADD11RoundRect,0.250000X-0.475000X0.250000X-0.475000X-0.250000X0.475000X-0.250000X0.475000X0.250000X0*%
%TD*%
%TA.AperFunction,SMDPad,CuDef*%
%ADD12R,0.400000X0.480000*%
%TD*%
%TA.AperFunction,SMDPad,CuDef*%
%ADD13RoundRect,0.250000X-0.262500X-0.450000X0.262500X-0.450000X0.262500X0.450000X-0.262500X0.450000X0*%
%TD*%
%TA.AperFunction,SMDPad,CuDef*%
%ADD14RoundRect,0.250000X0.450000X-0.262500X0.450000X0.262500X-0.450000X0.262500X-0.450000X-0.262500X0*%
%TD*%
%TA.AperFunction,ComponentPad*%
%ADD15R,1.800000X1.800000*%
%TD*%
%TA.AperFunction,ComponentPad*%
%ADD16C,1.800000*%
%TD*%
%TA.AperFunction,ComponentPad*%
%ADD17C,1.400000*%
%TD*%
%TA.AperFunction,SMDPad,CuDef*%
%ADD18R,0.600000X1.150000*%
%TD*%
%TA.AperFunction,SMDPad,CuDef*%
%ADD19R,0.300000X1.150000*%
%TD*%
%TA.AperFunction,SMDPad,CuDef*%
%ADD20R,2.180000X2.000000*%
%TD*%
%TA.AperFunction,SMDPad,CuDef*%
%ADD21RoundRect,0.250000X1.000000X0.650000X-1.000000X0.650000X-1.000000X-0.650000X1.000000X-0.650000X0*%
%TD*%
%TA.AperFunction,SMDPad,CuDef*%
%ADD22RoundRect,0.150000X-0.512500X-0.150000X0.512500X-0.150000X0.512500X0.150000X-0.512500X0.150000X0*%
%TD*%
%TA.AperFunction,ComponentPad*%
%ADD23RoundRect,0.250000X-0.625000X0.350000X-0.625000X-0.350000X0.625000X-0.350000X0.625000X0.350000X0*%
%TD*%
%TA.AperFunction,ComponentPad*%
%ADD24O,1.750000X1.200000*%
%TD*%
%TA.AperFunction,SMDPad,CuDef*%
%ADD25RoundRect,0.250000X0.262500X0.450000X-0.262500X0.450000X-0.262500X-0.450000X0.262500X-0.450000X0*%
%TD*%
%TA.AperFunction,ComponentPad*%
%ADD26RoundRect,0.250000X0.625000X-0.350000X0.625000X0.350000X-0.625000X0.350000X-0.625000X-0.350000X0*%
%TD*%
%TA.AperFunction,SMDPad,CuDef*%
%ADD27RoundRect,0.150000X0.587500X0.150000X-0.587500X0.150000X-0.587500X-0.150000X0.587500X-0.150000X0*%
%TD*%
%TA.AperFunction,ViaPad*%
%ADD28C,0.600000*%
%TD*%
%TA.AperFunction,Conductor*%
%ADD29C,0.200000*%
%TD*%
G04 APERTURE END LIST*
D10*
%TO.P,D2,1,K*%
%TO.N,+5V*%
X108586000Y-116332000D03*
%TO.P,D2,2,A*%
%TO.N,VBUS*%
X111886000Y-116332000D03*
%TD*%
D11*
%TO.P,C1,1*%
%TO.N,GND*%
X113030000Y-107574000D03*
%TO.P,C1,2*%
%TO.N,Net-(D3-A)*%
X113030000Y-109474000D03*
%TD*%
D12*
%TO.P,D1,1*%
%TO.N,GND*%
X110744000Y-123902000D03*
%TO.P,D1,2*%
%TO.N,VBUS*%
X110744000Y-125222000D03*
%TD*%
D13*
%TO.P,R2,1*%
%TO.N,Net-(USB1-CC2)*%
X106887000Y-123952000D03*
%TO.P,R2,2*%
%TO.N,GND*%
X108712000Y-123952000D03*
%TD*%
D14*
%TO.P,R6,1*%
%TO.N,Net-(U1-STAT)*%
X99314000Y-113030000D03*
%TO.P,R6,2*%
%TO.N,Net-(D4-K)*%
X99314000Y-111205000D03*
%TD*%
D15*
%TO.P,D4,1,K*%
%TO.N,Net-(D4-K)*%
X96266000Y-110744000D03*
D16*
%TO.P,D4,2,A*%
%TO.N,+5V*%
X96266000Y-113284000D03*
%TD*%
D17*
%TO.P,R5,1*%
%TO.N,Net-(D3-A)*%
X110744000Y-107950000D03*
%TO.P,R5,2*%
%TO.N,GND*%
X105664000Y-107950000D03*
%TD*%
D18*
%TO.P,USB1,A1,GND*%
%TO.N,GND*%
X102114000Y-127195000D03*
X108514000Y-127195000D03*
%TO.P,USB1,A4,VBUS*%
%TO.N,VBUS*%
X102914000Y-127195000D03*
X107714000Y-127195000D03*
D19*
%TO.P,USB1,A5,CC1*%
%TO.N,Net-(USB1-CC1)*%
X104064000Y-127195000D03*
%TO.P,USB1,A6,D+*%
%TO.N,unconnected-(USB1-D+-PadA6)*%
X105064000Y-127195000D03*
%TO.P,USB1,A7,D-*%
%TO.N,unconnected-(USB1-D--PadA7)*%
X105564000Y-127195000D03*
%TO.P,USB1,A8*%
%TO.N,N/C*%
X106564000Y-127195000D03*
%TO.P,USB1,B5,CC2*%
%TO.N,Net-(USB1-CC2)*%
X107064000Y-127195000D03*
%TO.P,USB1,B6,D+*%
%TO.N,unconnected-(USB1-D+-PadB6)*%
X106064000Y-127195000D03*
%TO.P,USB1,B7,D-*%
%TO.N,unconnected-(USB1-D--PadB7)*%
X104564000Y-127195000D03*
%TO.P,USB1,B8*%
%TO.N,N/C*%
X103564000Y-127195000D03*
D20*
%TO.P,USB1,S1,SHLD*%
%TO.N,GND*%
X100204000Y-127695000D03*
X100204000Y-131615000D03*
X110424000Y-127695000D03*
X110424000Y-131615000D03*
%TD*%
D21*
%TO.P,D3,1,K*%
%TO.N,LOAD*%
X117348000Y-112268000D03*
%TO.P,D3,2,A*%
%TO.N,Net-(D3-A)*%
X113348000Y-112268000D03*
%TD*%
D13*
%TO.P,R3,1*%
%TO.N,GND*%
X101807000Y-108966000D03*
%TO.P,R3,2*%
%TO.N,Net-(U1-PROG)*%
X103632000Y-108966000D03*
%TD*%
D11*
%TO.P,C3,1*%
%TO.N,VBAT*%
X102108000Y-119446000D03*
%TO.P,C3,2*%
%TO.N,GND*%
X102108000Y-121346000D03*
%TD*%
%TO.P,C4,1*%
%TO.N,LOAD*%
X112014000Y-118684000D03*
%TO.P,C4,2*%
%TO.N,GND*%
X112014000Y-120584000D03*
%TD*%
D22*
%TO.P,U1,1,STAT*%
%TO.N,Net-(U1-STAT)*%
X101732500Y-113350000D03*
%TO.P,U1,2,V_{SS}*%
%TO.N,GND*%
X101732500Y-114300000D03*
%TO.P,U1,3,V_{BAT}*%
%TO.N,VBAT*%
X101732500Y-115250000D03*
%TO.P,U1,4,V_{DD}*%
%TO.N,+5V*%
X104007500Y-115250000D03*
%TO.P,U1,5,PROG*%
%TO.N,Net-(U1-PROG)*%
X104007500Y-113350000D03*
%TD*%
D23*
%TO.P,J1,1,Pin_1*%
%TO.N,LOAD*%
X116586000Y-116618000D03*
D24*
%TO.P,J1,2,Pin_2*%
%TO.N,GND*%
X116586000Y-118618000D03*
%TD*%
D11*
%TO.P,C2,1*%
%TO.N,+5V*%
X108000000Y-118600000D03*
%TO.P,C2,2*%
%TO.N,GND*%
X108000000Y-120500000D03*
%TD*%
D25*
%TO.P,R1,1*%
%TO.N,Net-(USB1-CC1)*%
X103782500Y-123952000D03*
%TO.P,R1,2*%
%TO.N,GND*%
X101957500Y-123952000D03*
%TD*%
D17*
%TO.P,R4,1*%
%TO.N,Net-(D3-A)*%
X106426000Y-110998000D03*
%TO.P,R4,2*%
%TO.N,+5V*%
X106426000Y-116078000D03*
%TD*%
D26*
%TO.P,J2,1,Pin_1*%
%TO.N,VBAT*%
X95504000Y-119094000D03*
D24*
%TO.P,J2,2,Pin_2*%
%TO.N,GND*%
X95504000Y-117094000D03*
%TD*%
D27*
%TO.P,Q1,1,G*%
%TO.N,Net-(D3-A)*%
X110490000Y-113152000D03*
%TO.P,Q1,2,S*%
%TO.N,LOAD*%
X110490000Y-111252000D03*
%TO.P,Q1,3,D*%
%TO.N,VBAT*%
X108615000Y-112202000D03*
%TD*%
D28*
%TO.N,Net-(D3-A)*%
X110250000Y-114250000D03*
X106500000Y-113000000D03*
%TO.N,VBAT*%
X100250000Y-115250000D03*
X102250000Y-118250000D03*
%TO.N,LOAD*%
X111000000Y-109750000D03*
X116250000Y-109750000D03*
%TD*%
D29*
%TO.N,GND*%
X109924000Y-127195000D02*
X110424000Y-127695000D01*
X108514000Y-127195000D02*
X109924000Y-127195000D01*
%TO.N,Net-(D3-A)*%
X112464000Y-113152000D02*
X113348000Y-112268000D01*
X106426000Y-110998000D02*
X106426000Y-112926000D01*
X110490000Y-114010000D02*
X110250000Y-114250000D01*
X110490000Y-113152000D02*
X110490000Y-114010000D01*
X106426000Y-112926000D02*
X106500000Y-113000000D01*
X113030000Y-109474000D02*
X113348000Y-109792000D01*
X111506000Y-107950000D02*
X113030000Y-109474000D01*
X110744000Y-107950000D02*
X111506000Y-107950000D01*
X110490000Y-113152000D02*
X112464000Y-113152000D01*
X113348000Y-109792000D02*
X113348000Y-112268000D01*
%TO.N,+5V*%
X96266000Y-113284000D02*
X97034000Y-113284000D01*
X97034000Y-113284000D02*
X101000000Y-117250000D01*
X106426000Y-116078000D02*
X108332000Y-116078000D01*
X101000000Y-117250000D02*
X102007500Y-117250000D01*
X108332000Y-116078000D02*
X108586000Y-116332000D01*
X102007500Y-117250000D02*
X104007500Y-115250000D01*
X108000000Y-118600000D02*
X108000000Y-116918000D01*
X105598000Y-115250000D02*
X106426000Y-116078000D01*
X104007500Y-115250000D02*
X105598000Y-115250000D01*
X108000000Y-116918000D02*
X108586000Y-116332000D01*
%TO.N,VBAT*%
X103500000Y-114250000D02*
X106567000Y-114250000D01*
X101732500Y-115250000D02*
X100250000Y-115250000D01*
X101732500Y-115250000D02*
X102500000Y-115250000D01*
X102108000Y-118392000D02*
X102250000Y-118250000D01*
X95856000Y-119446000D02*
X95504000Y-119094000D01*
X102108000Y-119446000D02*
X102108000Y-118392000D01*
X102500000Y-115250000D02*
X103500000Y-114250000D01*
X102108000Y-119446000D02*
X95856000Y-119446000D01*
X106567000Y-114250000D02*
X108615000Y-112202000D01*
%TO.N,LOAD*%
X117000000Y-111920000D02*
X117348000Y-112268000D01*
X117348000Y-110848000D02*
X116250000Y-109750000D01*
X117348000Y-115856000D02*
X117348000Y-112268000D01*
X112014000Y-118684000D02*
X114520000Y-118684000D01*
X114520000Y-118684000D02*
X116586000Y-116618000D01*
X110490000Y-111252000D02*
X110490000Y-110260000D01*
X116586000Y-116618000D02*
X117348000Y-115856000D01*
X110490000Y-110260000D02*
X111000000Y-109750000D01*
X117348000Y-112268000D02*
X117348000Y-110848000D01*
%TO.N,VBUS*%
X111750000Y-122750000D02*
X110000000Y-121000000D01*
X107357000Y-128071000D02*
X107714000Y-127714000D01*
X110000000Y-118218000D02*
X111886000Y-116332000D01*
X102914000Y-127195000D02*
X102914000Y-127735000D01*
X102914000Y-127735000D02*
X103250000Y-128071000D01*
X107714000Y-126420000D02*
X107714000Y-127195000D01*
X110744000Y-125222000D02*
X111750000Y-124216000D01*
X108912000Y-125222000D02*
X107714000Y-126420000D01*
X107714000Y-127714000D02*
X107714000Y-127195000D01*
X110744000Y-125222000D02*
X108912000Y-125222000D01*
X110000000Y-121000000D02*
X110000000Y-118218000D01*
X111750000Y-124216000D02*
X111750000Y-122750000D01*
X103250000Y-128071000D02*
X107357000Y-128071000D01*
%TO.N,Net-(D4-K)*%
X96727000Y-111205000D02*
X96266000Y-110744000D01*
X99314000Y-111205000D02*
X96727000Y-111205000D01*
%TO.N,Net-(USB1-CC1)*%
X104064000Y-124233500D02*
X103782500Y-123952000D01*
X104064000Y-127195000D02*
X104064000Y-124233500D01*
%TO.N,Net-(USB1-CC2)*%
X107064000Y-124129000D02*
X106887000Y-123952000D01*
X107064000Y-127195000D02*
X107064000Y-124129000D01*
%TO.N,Net-(U1-PROG)*%
X104007500Y-113350000D02*
X104007500Y-109341500D01*
X104007500Y-109341500D02*
X103632000Y-108966000D01*
%TO.N,Net-(U1-STAT)*%
X101412500Y-113030000D02*
X101732500Y-113350000D01*
X99314000Y-113030000D02*
X101412500Y-113030000D01*
%TD*%
%TA.AperFunction,Conductor*%
%TO.N,GND*%
G36*
X117756110Y-107231101D02*
G01*
X117887973Y-107244089D01*
X117911801Y-107248828D01*
X118032793Y-107285531D01*
X118055245Y-107294832D01*
X118072409Y-107304006D01*
X118166738Y-107354426D01*
X118186949Y-107367930D01*
X118284677Y-107448132D01*
X118301867Y-107465322D01*
X118382069Y-107563050D01*
X118395573Y-107583261D01*
X118455166Y-107694751D01*
X118464469Y-107717209D01*
X118501169Y-107838192D01*
X118505911Y-107862033D01*
X118518896Y-107993877D01*
X118519493Y-108006152D01*
X118516530Y-111043621D01*
X118496780Y-111110641D01*
X118443931Y-111156345D01*
X118392530Y-111167500D01*
X117772500Y-111167500D01*
X117705461Y-111147815D01*
X117659706Y-111095011D01*
X117648500Y-111043500D01*
X117648500Y-110808439D01*
X117632905Y-110750238D01*
X117628021Y-110732011D01*
X117621787Y-110721213D01*
X117588464Y-110663495D01*
X117588458Y-110663487D01*
X116786819Y-109861848D01*
X116753334Y-109800525D01*
X116750500Y-109774167D01*
X116750500Y-109684110D01*
X116750500Y-109684108D01*
X116716392Y-109556814D01*
X116650500Y-109442686D01*
X116557314Y-109349500D01*
X116500250Y-109316554D01*
X116443187Y-109283608D01*
X116379539Y-109266554D01*
X116315892Y-109249500D01*
X116184108Y-109249500D01*
X116056812Y-109283608D01*
X115942686Y-109349500D01*
X115942683Y-109349502D01*
X115849502Y-109442683D01*
X115849500Y-109442686D01*
X115783608Y-109556812D01*
X115763306Y-109632583D01*
X115749500Y-109684108D01*
X115749500Y-109815892D01*
X115761814Y-109861848D01*
X115783608Y-109943187D01*
X115810925Y-109990500D01*
X115849500Y-110057314D01*
X115942686Y-110150500D01*
X116056814Y-110216392D01*
X116184108Y-110250500D01*
X116184110Y-110250500D01*
X116274167Y-110250500D01*
X116341206Y-110270185D01*
X116361848Y-110286819D01*
X117011181Y-110936152D01*
X117025884Y-110963079D01*
X117042477Y-110988898D01*
X117043368Y-110995098D01*
X117044666Y-110997475D01*
X117047500Y-111023833D01*
X117047500Y-111043500D01*
X117027815Y-111110539D01*
X116975011Y-111156294D01*
X116923500Y-111167500D01*
X116293730Y-111167500D01*
X116263300Y-111170353D01*
X116263298Y-111170353D01*
X116135119Y-111215206D01*
X116135117Y-111215207D01*
X116025850Y-111295850D01*
X115945207Y-111405117D01*
X115945206Y-111405119D01*
X115900353Y-111533298D01*
X115900353Y-111533300D01*
X115897500Y-111563730D01*
X115897500Y-112972269D01*
X115900353Y-113002699D01*
X115900353Y-113002701D01*
X115945206Y-113130880D01*
X115945207Y-113130882D01*
X116025850Y-113240150D01*
X116135118Y-113320793D01*
X116177845Y-113335744D01*
X116263299Y-113365646D01*
X116293730Y-113368500D01*
X116293734Y-113368500D01*
X116923500Y-113368500D01*
X116990539Y-113388185D01*
X117036294Y-113440989D01*
X117047500Y-113492500D01*
X117047500Y-115680167D01*
X117038855Y-115709607D01*
X117032332Y-115739594D01*
X117028577Y-115744609D01*
X117027815Y-115747206D01*
X117011181Y-115767848D01*
X116997848Y-115781181D01*
X116936525Y-115814666D01*
X116910167Y-115817500D01*
X115906730Y-115817500D01*
X115876300Y-115820353D01*
X115876298Y-115820353D01*
X115748119Y-115865206D01*
X115748117Y-115865207D01*
X115638850Y-115945850D01*
X115558207Y-116055117D01*
X115558206Y-116055119D01*
X115513353Y-116183298D01*
X115513353Y-116183300D01*
X115510500Y-116213730D01*
X115510500Y-117022269D01*
X115513353Y-117052698D01*
X115542826Y-117136927D01*
X115546387Y-117206706D01*
X115513465Y-117265562D01*
X114431848Y-118347181D01*
X114370525Y-118380666D01*
X114344167Y-118383500D01*
X113036596Y-118383500D01*
X112969557Y-118363815D01*
X112923802Y-118311011D01*
X112919555Y-118300456D01*
X112906966Y-118264480D01*
X112891793Y-118221118D01*
X112811150Y-118111850D01*
X112701882Y-118031207D01*
X112701880Y-118031206D01*
X112573700Y-117986353D01*
X112543270Y-117983500D01*
X112543266Y-117983500D01*
X111484734Y-117983500D01*
X111484730Y-117983500D01*
X111454300Y-117986353D01*
X111454298Y-117986353D01*
X111326119Y-118031206D01*
X111326117Y-118031207D01*
X111216850Y-118111850D01*
X111136207Y-118221117D01*
X111136206Y-118221119D01*
X111091353Y-118349298D01*
X111091353Y-118349300D01*
X111088500Y-118379730D01*
X111088500Y-118988269D01*
X111091353Y-119018699D01*
X111091353Y-119018701D01*
X111135723Y-119145500D01*
X111136207Y-119146882D01*
X111216850Y-119256150D01*
X111326118Y-119336793D01*
X111390033Y-119359158D01*
X111446807Y-119399878D01*
X111472555Y-119464830D01*
X111459099Y-119533392D01*
X111410712Y-119583795D01*
X111388082Y-119593904D01*
X111219878Y-119649642D01*
X111219875Y-119649643D01*
X111070654Y-119741684D01*
X110946684Y-119865654D01*
X110854643Y-120014875D01*
X110854641Y-120014880D01*
X110799494Y-120181302D01*
X110799493Y-120181309D01*
X110789000Y-120284013D01*
X110789000Y-120334000D01*
X113238999Y-120334000D01*
X113238999Y-120284028D01*
X113238998Y-120284013D01*
X113228505Y-120181302D01*
X113173358Y-120014880D01*
X113173356Y-120014875D01*
X113081315Y-119865654D01*
X112957345Y-119741684D01*
X112808124Y-119649643D01*
X112808119Y-119649641D01*
X112639917Y-119593905D01*
X112582472Y-119554133D01*
X112555649Y-119489617D01*
X112567964Y-119420841D01*
X112615507Y-119369641D01*
X112637966Y-119359158D01*
X112637972Y-119359156D01*
X112701882Y-119336793D01*
X112811150Y-119256150D01*
X112891793Y-119146882D01*
X112909827Y-119095341D01*
X112919555Y-119067544D01*
X112960277Y-119010769D01*
X113025230Y-118985022D01*
X113036596Y-118984500D01*
X114559560Y-118984500D01*
X114559562Y-118984500D01*
X114635989Y-118964021D01*
X114704511Y-118924460D01*
X114760460Y-118868511D01*
X115224652Y-118404319D01*
X115285975Y-118370834D01*
X115312333Y-118368000D01*
X116305670Y-118368000D01*
X116285925Y-118387745D01*
X116236556Y-118473255D01*
X116211000Y-118568630D01*
X116211000Y-118667370D01*
X116236556Y-118762745D01*
X116285925Y-118848255D01*
X116305670Y-118868000D01*
X115236885Y-118868000D01*
X115238085Y-118875584D01*
X115291591Y-119040255D01*
X115370195Y-119194524D01*
X115471967Y-119334602D01*
X115594397Y-119457032D01*
X115734475Y-119558804D01*
X115888742Y-119637408D01*
X116053415Y-119690914D01*
X116224429Y-119718000D01*
X116336000Y-119718000D01*
X116336000Y-118898330D01*
X116355745Y-118918075D01*
X116441255Y-118967444D01*
X116536630Y-118993000D01*
X116635370Y-118993000D01*
X116730745Y-118967444D01*
X116816255Y-118918075D01*
X116836000Y-118898330D01*
X116836000Y-119718000D01*
X116947571Y-119718000D01*
X117118584Y-119690914D01*
X117283257Y-119637408D01*
X117437524Y-119558804D01*
X117577602Y-119457032D01*
X117700032Y-119334602D01*
X117801804Y-119194524D01*
X117880408Y-119040255D01*
X117933914Y-118875584D01*
X117935115Y-118868000D01*
X116866330Y-118868000D01*
X116886075Y-118848255D01*
X116935444Y-118762745D01*
X116961000Y-118667370D01*
X116961000Y-118568630D01*
X116935444Y-118473255D01*
X116886075Y-118387745D01*
X116866330Y-118368000D01*
X117935115Y-118368000D01*
X117935115Y-118367999D01*
X117933914Y-118360415D01*
X117880408Y-118195744D01*
X117801804Y-118041475D01*
X117700032Y-117901397D01*
X117577602Y-117778967D01*
X117437521Y-117677194D01*
X117333947Y-117624419D01*
X117283152Y-117576445D01*
X117266357Y-117508624D01*
X117288895Y-117442489D01*
X117343610Y-117399038D01*
X117349248Y-117396908D01*
X117423882Y-117370793D01*
X117533150Y-117290150D01*
X117613793Y-117180882D01*
X117636436Y-117116171D01*
X117658646Y-117052701D01*
X117658646Y-117052699D01*
X117661500Y-117022269D01*
X117661500Y-116213730D01*
X117658646Y-116183301D01*
X117648111Y-116153195D01*
X117619837Y-116072393D01*
X117616275Y-116002617D01*
X117625405Y-115979703D01*
X117624911Y-115979499D01*
X117628020Y-115971991D01*
X117628019Y-115971991D01*
X117628022Y-115971988D01*
X117648500Y-115895562D01*
X117648500Y-115816438D01*
X117648500Y-113492500D01*
X117668185Y-113425461D01*
X117720989Y-113379706D01*
X117772500Y-113368500D01*
X118390141Y-113368500D01*
X118457180Y-113388185D01*
X118502935Y-113440989D01*
X118514141Y-113492621D01*
X118499645Y-128351020D01*
X118499564Y-128433867D01*
X118499500Y-128434108D01*
X118499500Y-128497128D01*
X118499500Y-128497253D01*
X118499496Y-128497263D01*
X118499368Y-128502855D01*
X118482703Y-128863303D01*
X118481646Y-128874707D01*
X118432192Y-129229231D01*
X118430087Y-129240490D01*
X118348135Y-129588931D01*
X118345001Y-129599947D01*
X118231243Y-129939355D01*
X118227105Y-129950035D01*
X118082523Y-130277482D01*
X118077418Y-130287735D01*
X117903234Y-130600452D01*
X117897205Y-130610190D01*
X117694906Y-130905512D01*
X117688003Y-130914652D01*
X117459328Y-131190035D01*
X117451612Y-131198499D01*
X117198499Y-131451612D01*
X117190035Y-131459328D01*
X116914652Y-131688003D01*
X116905512Y-131694906D01*
X116610190Y-131897205D01*
X116600452Y-131903234D01*
X116287735Y-132077418D01*
X116277482Y-132082523D01*
X115950035Y-132227105D01*
X115939355Y-132231243D01*
X115599947Y-132345001D01*
X115588931Y-132348135D01*
X115240490Y-132430087D01*
X115229231Y-132432192D01*
X114874707Y-132481646D01*
X114863303Y-132482703D01*
X114502855Y-132499368D01*
X114497128Y-132499500D01*
X112138000Y-132499500D01*
X112070961Y-132479815D01*
X112025206Y-132427011D01*
X112014000Y-132375500D01*
X112014000Y-131865000D01*
X108834000Y-131865000D01*
X108834000Y-132375500D01*
X108814315Y-132442539D01*
X108761511Y-132488294D01*
X108710000Y-132499500D01*
X101918000Y-132499500D01*
X101850961Y-132479815D01*
X101805206Y-132427011D01*
X101794000Y-132375500D01*
X101794000Y-131865000D01*
X98614000Y-131865000D01*
X98614000Y-132375500D01*
X98594315Y-132442539D01*
X98541511Y-132488294D01*
X98490000Y-132499500D01*
X97752872Y-132499500D01*
X97747145Y-132499368D01*
X97386696Y-132482703D01*
X97375292Y-132481646D01*
X97020768Y-132432192D01*
X97009509Y-132430087D01*
X96661068Y-132348135D01*
X96650052Y-132345001D01*
X96310644Y-132231243D01*
X96299964Y-132227105D01*
X95972517Y-132082523D01*
X95962264Y-132077418D01*
X95649547Y-131903234D01*
X95639809Y-131897205D01*
X95344487Y-131694906D01*
X95335347Y-131688003D01*
X95059964Y-131459328D01*
X95051500Y-131451612D01*
X94798387Y-131198499D01*
X94790671Y-131190035D01*
X94561994Y-130914649D01*
X94555093Y-130905512D01*
X94369055Y-130633928D01*
X94352794Y-130610190D01*
X94346765Y-130600452D01*
X94328218Y-130567155D01*
X98614000Y-130567155D01*
X98614000Y-131365000D01*
X99954000Y-131365000D01*
X100454000Y-131365000D01*
X101794000Y-131365000D01*
X101794000Y-130567172D01*
X101793999Y-130567155D01*
X108834000Y-130567155D01*
X108834000Y-131365000D01*
X110174000Y-131365000D01*
X110674000Y-131365000D01*
X112014000Y-131365000D01*
X112014000Y-130567172D01*
X112013999Y-130567155D01*
X112007598Y-130507627D01*
X112007596Y-130507620D01*
X111957354Y-130372913D01*
X111957350Y-130372906D01*
X111871190Y-130257812D01*
X111871187Y-130257809D01*
X111756093Y-130171649D01*
X111756086Y-130171645D01*
X111621379Y-130121403D01*
X111621372Y-130121401D01*
X111561844Y-130115000D01*
X110674000Y-130115000D01*
X110674000Y-131365000D01*
X110174000Y-131365000D01*
X110174000Y-130115000D01*
X109286155Y-130115000D01*
X109226627Y-130121401D01*
X109226620Y-130121403D01*
X109091913Y-130171645D01*
X109091906Y-130171649D01*
X108976812Y-130257809D01*
X108976809Y-130257812D01*
X108890649Y-130372906D01*
X108890645Y-130372913D01*
X108840403Y-130507620D01*
X108840401Y-130507627D01*
X108834000Y-130567155D01*
X101793999Y-130567155D01*
X101787598Y-130507627D01*
X101787596Y-130507620D01*
X101737354Y-130372913D01*
X101737350Y-130372906D01*
X101651190Y-130257812D01*
X101651187Y-130257809D01*
X101536093Y-130171649D01*
X101536086Y-130171645D01*
X101401379Y-130121403D01*
X101401372Y-130121401D01*
X101341844Y-130115000D01*
X100454000Y-130115000D01*
X100454000Y-131365000D01*
X99954000Y-131365000D01*
X99954000Y-130115000D01*
X99066155Y-130115000D01*
X99006627Y-130121401D01*
X99006620Y-130121403D01*
X98871913Y-130171645D01*
X98871906Y-130171649D01*
X98756812Y-130257809D01*
X98756809Y-130257812D01*
X98670649Y-130372906D01*
X98670645Y-130372913D01*
X98620403Y-130507620D01*
X98620401Y-130507627D01*
X98614000Y-130567155D01*
X94328218Y-130567155D01*
X94220025Y-130372913D01*
X94172579Y-130287731D01*
X94167476Y-130277482D01*
X94158790Y-130257809D01*
X94022889Y-129950022D01*
X94018761Y-129939368D01*
X93904994Y-129599934D01*
X93901867Y-129588944D01*
X93819910Y-129240482D01*
X93817807Y-129229231D01*
X93805130Y-129138354D01*
X93768352Y-128874700D01*
X93767296Y-128863303D01*
X93764479Y-128802380D01*
X93761727Y-128742844D01*
X98614000Y-128742844D01*
X98620401Y-128802372D01*
X98620403Y-128802379D01*
X98670645Y-128937086D01*
X98670649Y-128937093D01*
X98756809Y-129052187D01*
X98756812Y-129052190D01*
X98871906Y-129138350D01*
X98871913Y-129138354D01*
X99006620Y-129188596D01*
X99006627Y-129188598D01*
X99066155Y-129194999D01*
X99066172Y-129195000D01*
X99954000Y-129195000D01*
X99954000Y-127945000D01*
X98614000Y-127945000D01*
X98614000Y-128742844D01*
X93761727Y-128742844D01*
X93750632Y-128502855D01*
X93750500Y-128497128D01*
X93750500Y-126647155D01*
X98614000Y-126647155D01*
X98614000Y-127445000D01*
X99954000Y-127445000D01*
X99954000Y-126195000D01*
X100454000Y-126195000D01*
X100454000Y-129195000D01*
X101341828Y-129195000D01*
X101341844Y-129194999D01*
X101401372Y-129188598D01*
X101401379Y-129188596D01*
X101536086Y-129138354D01*
X101536093Y-129138350D01*
X101651187Y-129052190D01*
X101651190Y-129052187D01*
X101737350Y-128937093D01*
X101737354Y-128937086D01*
X101787596Y-128802380D01*
X101794344Y-128739621D01*
X101821082Y-128675070D01*
X101878475Y-128635222D01*
X101948300Y-128632728D01*
X102005315Y-128665195D01*
X102070635Y-128730515D01*
X102184281Y-128796129D01*
X102195106Y-128802379D01*
X102201865Y-128806281D01*
X102348234Y-128845500D01*
X102348236Y-128845500D01*
X102499764Y-128845500D01*
X102499766Y-128845500D01*
X102646135Y-128806281D01*
X102777365Y-128730515D01*
X102884515Y-128623365D01*
X102960281Y-128492135D01*
X102975103Y-128436815D01*
X103011466Y-128377157D01*
X103074312Y-128346627D01*
X103126970Y-128349135D01*
X103134011Y-128351021D01*
X103134012Y-128351022D01*
X103210438Y-128371500D01*
X103210440Y-128371500D01*
X107396560Y-128371500D01*
X107396562Y-128371500D01*
X107472989Y-128351021D01*
X107472992Y-128351018D01*
X107480499Y-128347910D01*
X107481495Y-128350316D01*
X107536816Y-128336888D01*
X107602847Y-128359730D01*
X107646046Y-128414644D01*
X107650710Y-128428655D01*
X107667719Y-128492136D01*
X107673908Y-128502855D01*
X107743485Y-128623365D01*
X107850635Y-128730515D01*
X107964281Y-128796129D01*
X107975106Y-128802379D01*
X107981865Y-128806281D01*
X108128234Y-128845500D01*
X108128236Y-128845500D01*
X108279764Y-128845500D01*
X108279766Y-128845500D01*
X108426135Y-128806281D01*
X108557365Y-128730515D01*
X108622687Y-128665192D01*
X108684006Y-128631710D01*
X108753698Y-128636694D01*
X108809632Y-128678565D01*
X108833654Y-128739619D01*
X108840401Y-128802373D01*
X108840403Y-128802379D01*
X108890645Y-128937086D01*
X108890649Y-128937093D01*
X108976809Y-129052187D01*
X108976812Y-129052190D01*
X109091906Y-129138350D01*
X109091913Y-129138354D01*
X109226620Y-129188596D01*
X109226627Y-129188598D01*
X109286155Y-129194999D01*
X109286172Y-129195000D01*
X110174000Y-129195000D01*
X110674000Y-129195000D01*
X111561828Y-129195000D01*
X111561844Y-129194999D01*
X111621372Y-129188598D01*
X111621379Y-129188596D01*
X111756086Y-129138354D01*
X111756093Y-129138350D01*
X111871187Y-129052190D01*
X111871190Y-129052187D01*
X111957350Y-128937093D01*
X111957354Y-128937086D01*
X112007596Y-128802379D01*
X112007598Y-128802372D01*
X112013999Y-128742844D01*
X112014000Y-128742827D01*
X112014000Y-127945000D01*
X110674000Y-127945000D01*
X110674000Y-129195000D01*
X110174000Y-129195000D01*
X110174000Y-127445000D01*
X110674000Y-127445000D01*
X112014000Y-127445000D01*
X112014000Y-126647172D01*
X112013999Y-126647155D01*
X112007598Y-126587627D01*
X112007596Y-126587620D01*
X111957354Y-126452913D01*
X111957350Y-126452906D01*
X111871190Y-126337812D01*
X111871187Y-126337809D01*
X111756093Y-126251649D01*
X111756086Y-126251645D01*
X111621379Y-126201403D01*
X111621372Y-126201401D01*
X111561844Y-126195000D01*
X110674000Y-126195000D01*
X110674000Y-127445000D01*
X110174000Y-127445000D01*
X110174000Y-126195000D01*
X109286155Y-126195000D01*
X109226627Y-126201401D01*
X109226620Y-126201403D01*
X109198309Y-126211962D01*
X109128617Y-126216945D01*
X109080667Y-126195046D01*
X109056089Y-126176647D01*
X109056086Y-126176645D01*
X108921379Y-126126403D01*
X108921372Y-126126401D01*
X108861844Y-126120000D01*
X108738332Y-126120000D01*
X108671293Y-126100315D01*
X108625538Y-126047511D01*
X108615594Y-125978353D01*
X108644619Y-125914797D01*
X108650643Y-125908327D01*
X109000152Y-125558819D01*
X109061475Y-125525334D01*
X109087833Y-125522500D01*
X110277006Y-125522500D01*
X110344045Y-125542185D01*
X110380108Y-125577608D01*
X110399448Y-125606552D01*
X110465769Y-125650867D01*
X110465770Y-125650868D01*
X110524247Y-125662499D01*
X110524250Y-125662500D01*
X110524252Y-125662500D01*
X110963750Y-125662500D01*
X110963751Y-125662499D01*
X110978568Y-125659552D01*
X111022229Y-125650868D01*
X111022229Y-125650867D01*
X111022231Y-125650867D01*
X111088552Y-125606552D01*
X111132867Y-125540231D01*
X111132867Y-125540229D01*
X111132868Y-125540229D01*
X111144499Y-125481752D01*
X111144500Y-125481750D01*
X111144500Y-125297833D01*
X111164185Y-125230794D01*
X111180819Y-125210152D01*
X111578275Y-124812696D01*
X111990460Y-124400511D01*
X112019918Y-124349488D01*
X112030021Y-124331989D01*
X112050500Y-124255562D01*
X112050500Y-122710438D01*
X112030022Y-122634012D01*
X111990460Y-122565489D01*
X111176231Y-121751260D01*
X111142746Y-121689937D01*
X111147730Y-121620245D01*
X111189602Y-121564312D01*
X111255066Y-121539895D01*
X111302917Y-121545873D01*
X111386305Y-121573505D01*
X111386309Y-121573506D01*
X111489019Y-121583999D01*
X111763999Y-121583999D01*
X112264000Y-121583999D01*
X112538972Y-121583999D01*
X112538986Y-121583998D01*
X112641697Y-121573505D01*
X112808119Y-121518358D01*
X112808124Y-121518356D01*
X112957345Y-121426315D01*
X113081315Y-121302345D01*
X113173356Y-121153124D01*
X113173358Y-121153119D01*
X113228505Y-120986697D01*
X113228506Y-120986690D01*
X113238999Y-120883986D01*
X113239000Y-120883973D01*
X113239000Y-120834000D01*
X112264000Y-120834000D01*
X112264000Y-121583999D01*
X111763999Y-121583999D01*
X111764000Y-121583998D01*
X111764000Y-120834000D01*
X110789001Y-120834000D01*
X110789001Y-120883986D01*
X110799494Y-120986697D01*
X110827125Y-121070082D01*
X110829527Y-121139911D01*
X110793795Y-121199952D01*
X110731274Y-121231145D01*
X110661815Y-121223584D01*
X110621738Y-121196767D01*
X110336819Y-120911848D01*
X110303334Y-120850525D01*
X110300500Y-120824167D01*
X110300500Y-118393832D01*
X110320185Y-118326793D01*
X110336814Y-118306155D01*
X111481798Y-117161171D01*
X111543119Y-117127688D01*
X111588876Y-117126381D01*
X111627508Y-117132500D01*
X111627512Y-117132500D01*
X112144493Y-117132500D01*
X112244121Y-117116720D01*
X112244121Y-117116719D01*
X112244126Y-117116719D01*
X112364220Y-117055528D01*
X112459528Y-116960220D01*
X112520719Y-116840126D01*
X112526756Y-116802011D01*
X112536500Y-116740493D01*
X112536500Y-115923506D01*
X112520720Y-115823878D01*
X112520719Y-115823876D01*
X112520719Y-115823874D01*
X112459528Y-115703780D01*
X112459526Y-115703778D01*
X112459523Y-115703774D01*
X112364225Y-115608476D01*
X112364221Y-115608473D01*
X112364220Y-115608472D01*
X112244126Y-115547281D01*
X112244124Y-115547280D01*
X112244121Y-115547279D01*
X112144493Y-115531500D01*
X112144488Y-115531500D01*
X111627512Y-115531500D01*
X111627507Y-115531500D01*
X111527878Y-115547279D01*
X111407778Y-115608473D01*
X111407774Y-115608476D01*
X111312476Y-115703774D01*
X111312473Y-115703778D01*
X111312472Y-115703780D01*
X111270162Y-115786819D01*
X111251279Y-115823878D01*
X111235500Y-115923506D01*
X111235500Y-116506167D01*
X111215815Y-116573206D01*
X111199181Y-116593848D01*
X109759541Y-118033487D01*
X109759535Y-118033495D01*
X109719982Y-118102004D01*
X109719979Y-118102009D01*
X109709567Y-118140869D01*
X109699500Y-118178438D01*
X109699500Y-121039562D01*
X109707678Y-121070082D01*
X109719979Y-121115990D01*
X109719982Y-121115995D01*
X109759535Y-121184504D01*
X109759541Y-121184512D01*
X111413181Y-122838152D01*
X111427884Y-122865079D01*
X111444477Y-122890898D01*
X111445368Y-122897098D01*
X111446666Y-122899475D01*
X111449500Y-122925833D01*
X111449500Y-123168114D01*
X111429815Y-123235153D01*
X111377011Y-123280908D01*
X111307853Y-123290852D01*
X111251189Y-123267381D01*
X111186088Y-123218646D01*
X111186086Y-123218645D01*
X111051379Y-123168403D01*
X111051372Y-123168401D01*
X110991844Y-123162000D01*
X110944000Y-123162000D01*
X110944000Y-123778000D01*
X110924315Y-123845039D01*
X110871511Y-123890794D01*
X110820000Y-123902000D01*
X110744000Y-123902000D01*
X110744000Y-123978000D01*
X110724315Y-124045039D01*
X110671511Y-124090794D01*
X110620000Y-124102000D01*
X110044000Y-124102000D01*
X110044000Y-124189844D01*
X110050401Y-124249372D01*
X110050403Y-124249379D01*
X110100645Y-124384086D01*
X110100649Y-124384093D01*
X110186809Y-124499187D01*
X110186812Y-124499190D01*
X110301906Y-124585350D01*
X110301913Y-124585354D01*
X110379617Y-124614336D01*
X110435551Y-124656207D01*
X110459968Y-124721672D01*
X110445116Y-124789945D01*
X110429143Y-124812696D01*
X110418509Y-124824711D01*
X110399448Y-124837448D01*
X110375438Y-124873380D01*
X110369865Y-124879678D01*
X110347111Y-124893966D01*
X110326495Y-124911196D01*
X110316293Y-124913319D01*
X110310695Y-124916836D01*
X110299946Y-124916723D01*
X110277006Y-124921500D01*
X109757438Y-124921500D01*
X109690399Y-124901815D01*
X109644644Y-124849011D01*
X109634700Y-124779853D01*
X109651900Y-124732402D01*
X109658855Y-124721126D01*
X109658858Y-124721119D01*
X109714005Y-124554697D01*
X109714006Y-124554690D01*
X109724499Y-124451986D01*
X109724500Y-124451973D01*
X109724500Y-124202000D01*
X108836000Y-124202000D01*
X108768961Y-124182315D01*
X108723206Y-124129511D01*
X108712000Y-124078000D01*
X108712000Y-123952000D01*
X108586000Y-123952000D01*
X108518961Y-123932315D01*
X108473206Y-123879511D01*
X108462000Y-123828000D01*
X108462000Y-123702000D01*
X108962000Y-123702000D01*
X109724499Y-123702000D01*
X109724499Y-123614155D01*
X110044000Y-123614155D01*
X110044000Y-123702000D01*
X110544000Y-123702000D01*
X110544000Y-123162000D01*
X110496155Y-123162000D01*
X110436627Y-123168401D01*
X110436620Y-123168403D01*
X110301913Y-123218645D01*
X110301906Y-123218649D01*
X110186812Y-123304809D01*
X110186809Y-123304812D01*
X110100649Y-123419906D01*
X110100645Y-123419913D01*
X110050403Y-123554620D01*
X110050401Y-123554627D01*
X110044000Y-123614155D01*
X109724499Y-123614155D01*
X109724499Y-123452028D01*
X109724498Y-123452013D01*
X109714005Y-123349302D01*
X109658858Y-123182880D01*
X109658856Y-123182875D01*
X109566815Y-123033654D01*
X109442845Y-122909684D01*
X109293624Y-122817643D01*
X109293619Y-122817641D01*
X109127197Y-122762494D01*
X109127190Y-122762493D01*
X109024486Y-122752000D01*
X108962000Y-122752000D01*
X108962000Y-123702000D01*
X108462000Y-123702000D01*
X108462000Y-122752000D01*
X108461999Y-122751999D01*
X108399528Y-122752000D01*
X108399511Y-122752001D01*
X108296802Y-122762494D01*
X108130380Y-122817641D01*
X108130375Y-122817643D01*
X107981154Y-122909684D01*
X107857184Y-123033654D01*
X107765143Y-123182875D01*
X107765140Y-123182883D01*
X107750198Y-123227974D01*
X107710425Y-123285418D01*
X107645909Y-123312240D01*
X107577133Y-123299924D01*
X107532723Y-123262601D01*
X107471651Y-123179851D01*
X107456139Y-123168403D01*
X107362382Y-123099207D01*
X107362380Y-123099206D01*
X107234200Y-123054353D01*
X107203770Y-123051500D01*
X107203766Y-123051500D01*
X106570234Y-123051500D01*
X106570230Y-123051500D01*
X106539800Y-123054353D01*
X106539798Y-123054353D01*
X106411619Y-123099206D01*
X106411617Y-123099207D01*
X106302350Y-123179850D01*
X106221707Y-123289117D01*
X106221706Y-123289119D01*
X106176853Y-123417298D01*
X106176853Y-123417300D01*
X106174000Y-123447730D01*
X106174000Y-124456269D01*
X106176853Y-124486699D01*
X106176853Y-124486701D01*
X106221325Y-124613790D01*
X106221707Y-124614882D01*
X106302350Y-124724150D01*
X106411618Y-124804793D01*
X106434204Y-124812696D01*
X106539799Y-124849646D01*
X106570230Y-124852500D01*
X106570234Y-124852500D01*
X106639500Y-124852500D01*
X106706539Y-124872185D01*
X106752294Y-124924989D01*
X106763500Y-124976500D01*
X106763500Y-126295500D01*
X106743815Y-126362539D01*
X106691011Y-126408294D01*
X106639500Y-126419500D01*
X106394252Y-126419500D01*
X106338190Y-126430651D01*
X106289810Y-126430651D01*
X106233748Y-126419500D01*
X105894252Y-126419500D01*
X105838190Y-126430651D01*
X105789810Y-126430651D01*
X105733748Y-126419500D01*
X105394252Y-126419500D01*
X105338190Y-126430651D01*
X105289810Y-126430651D01*
X105233748Y-126419500D01*
X104894252Y-126419500D01*
X104838190Y-126430651D01*
X104789810Y-126430651D01*
X104733748Y-126419500D01*
X104488500Y-126419500D01*
X104421461Y-126399815D01*
X104375706Y-126347011D01*
X104364500Y-126295500D01*
X104364500Y-124768544D01*
X104384185Y-124701505D01*
X104388730Y-124694911D01*
X104447790Y-124614886D01*
X104447789Y-124614886D01*
X104447793Y-124614882D01*
X104470219Y-124550790D01*
X104492646Y-124486701D01*
X104492646Y-124486699D01*
X104495500Y-124456269D01*
X104495500Y-123447730D01*
X104492646Y-123417300D01*
X104492646Y-123417298D01*
X104453299Y-123304853D01*
X104447793Y-123289118D01*
X104367150Y-123179850D01*
X104257882Y-123099207D01*
X104257880Y-123099206D01*
X104129700Y-123054353D01*
X104099270Y-123051500D01*
X104099266Y-123051500D01*
X103465734Y-123051500D01*
X103465730Y-123051500D01*
X103435300Y-123054353D01*
X103435298Y-123054353D01*
X103307119Y-123099206D01*
X103307117Y-123099207D01*
X103197850Y-123179850D01*
X103136776Y-123262602D01*
X103081128Y-123304853D01*
X103011472Y-123310311D01*
X102949923Y-123277243D01*
X102919300Y-123227972D01*
X102904358Y-123182880D01*
X102904356Y-123182875D01*
X102812315Y-123033654D01*
X102688345Y-122909684D01*
X102539124Y-122817643D01*
X102539119Y-122817641D01*
X102372697Y-122762494D01*
X102372690Y-122762493D01*
X102269986Y-122752000D01*
X102207500Y-122752000D01*
X102207500Y-125151999D01*
X102269972Y-125151999D01*
X102269986Y-125151998D01*
X102372697Y-125141505D01*
X102539119Y-125086358D01*
X102539124Y-125086356D01*
X102688345Y-124994315D01*
X102812315Y-124870345D01*
X102904356Y-124721124D01*
X102904359Y-124721117D01*
X102919300Y-124676028D01*
X102959072Y-124618583D01*
X103023587Y-124591759D01*
X103092363Y-124604073D01*
X103136775Y-124641396D01*
X103197850Y-124724150D01*
X103307118Y-124804793D01*
X103329704Y-124812696D01*
X103435299Y-124849646D01*
X103465730Y-124852500D01*
X103465734Y-124852500D01*
X103639500Y-124852500D01*
X103706539Y-124872185D01*
X103752294Y-124924989D01*
X103763500Y-124976500D01*
X103763500Y-126295500D01*
X103743815Y-126362539D01*
X103691011Y-126408294D01*
X103639500Y-126419500D01*
X103394252Y-126419500D01*
X103338190Y-126430651D01*
X103289810Y-126430651D01*
X103233748Y-126419500D01*
X102950556Y-126419500D01*
X102883517Y-126399815D01*
X102851290Y-126369811D01*
X102771190Y-126262812D01*
X102771187Y-126262809D01*
X102656093Y-126176649D01*
X102656086Y-126176645D01*
X102521379Y-126126403D01*
X102521372Y-126126401D01*
X102461844Y-126120000D01*
X102364000Y-126120000D01*
X102364000Y-127071000D01*
X102344315Y-127138039D01*
X102291511Y-127183794D01*
X102240000Y-127195000D01*
X101988000Y-127195000D01*
X101920961Y-127175315D01*
X101875206Y-127122511D01*
X101864000Y-127071000D01*
X101864000Y-126120000D01*
X101766155Y-126120000D01*
X101706627Y-126126401D01*
X101706620Y-126126403D01*
X101571913Y-126176645D01*
X101571907Y-126176648D01*
X101547330Y-126195047D01*
X101481866Y-126219463D01*
X101429689Y-126211961D01*
X101401383Y-126201404D01*
X101401372Y-126201401D01*
X101341844Y-126195000D01*
X100454000Y-126195000D01*
X99954000Y-126195000D01*
X99066155Y-126195000D01*
X99006627Y-126201401D01*
X99006620Y-126201403D01*
X98871913Y-126251645D01*
X98871906Y-126251649D01*
X98756812Y-126337809D01*
X98756809Y-126337812D01*
X98670649Y-126452906D01*
X98670645Y-126452913D01*
X98620403Y-126587620D01*
X98620401Y-126587627D01*
X98614000Y-126647155D01*
X93750500Y-126647155D01*
X93750500Y-124451986D01*
X100945001Y-124451986D01*
X100955494Y-124554697D01*
X101010641Y-124721119D01*
X101010643Y-124721124D01*
X101102684Y-124870345D01*
X101226654Y-124994315D01*
X101375875Y-125086356D01*
X101375880Y-125086358D01*
X101542302Y-125141505D01*
X101542309Y-125141506D01*
X101645019Y-125151999D01*
X101707499Y-125151998D01*
X101707500Y-125151998D01*
X101707500Y-124202000D01*
X100945001Y-124202000D01*
X100945001Y-124451986D01*
X93750500Y-124451986D01*
X93750500Y-123452013D01*
X100945000Y-123452013D01*
X100945000Y-123702000D01*
X101707500Y-123702000D01*
X101707500Y-122752000D01*
X101707499Y-122751999D01*
X101645028Y-122752000D01*
X101645011Y-122752001D01*
X101542302Y-122762494D01*
X101375880Y-122817641D01*
X101375875Y-122817643D01*
X101226654Y-122909684D01*
X101102684Y-123033654D01*
X101010643Y-123182875D01*
X101010641Y-123182880D01*
X100955494Y-123349302D01*
X100955493Y-123349309D01*
X100945000Y-123452013D01*
X93750500Y-123452013D01*
X93750500Y-121645986D01*
X100883001Y-121645986D01*
X100893494Y-121748697D01*
X100948641Y-121915119D01*
X100948643Y-121915124D01*
X101040684Y-122064345D01*
X101164654Y-122188315D01*
X101313875Y-122280356D01*
X101313880Y-122280358D01*
X101480302Y-122335505D01*
X101480309Y-122335506D01*
X101583019Y-122345999D01*
X101857999Y-122345999D01*
X102358000Y-122345999D01*
X102632972Y-122345999D01*
X102632986Y-122345998D01*
X102735697Y-122335505D01*
X102902119Y-122280358D01*
X102902124Y-122280356D01*
X103051345Y-122188315D01*
X103175315Y-122064345D01*
X103267356Y-121915124D01*
X103267358Y-121915119D01*
X103322505Y-121748697D01*
X103322506Y-121748690D01*
X103332999Y-121645986D01*
X103333000Y-121645973D01*
X103333000Y-121596000D01*
X102358000Y-121596000D01*
X102358000Y-122345999D01*
X101857999Y-122345999D01*
X101858000Y-122345998D01*
X101858000Y-121596000D01*
X100883001Y-121596000D01*
X100883001Y-121645986D01*
X93750500Y-121645986D01*
X93750500Y-116843999D01*
X94154884Y-116843999D01*
X94154885Y-116844000D01*
X95223670Y-116844000D01*
X95203925Y-116863745D01*
X95154556Y-116949255D01*
X95129000Y-117044630D01*
X95129000Y-117143370D01*
X95154556Y-117238745D01*
X95203925Y-117324255D01*
X95223670Y-117344000D01*
X94154885Y-117344000D01*
X94156085Y-117351584D01*
X94209591Y-117516255D01*
X94288195Y-117670524D01*
X94389967Y-117810602D01*
X94512397Y-117933032D01*
X94652475Y-118034804D01*
X94756051Y-118087579D01*
X94806847Y-118135554D01*
X94823642Y-118203375D01*
X94801104Y-118269510D01*
X94746389Y-118312961D01*
X94740712Y-118315105D01*
X94666117Y-118341207D01*
X94556850Y-118421850D01*
X94476207Y-118531117D01*
X94476206Y-118531119D01*
X94431353Y-118659298D01*
X94431353Y-118659300D01*
X94428500Y-118689730D01*
X94428500Y-119498269D01*
X94431353Y-119528699D01*
X94431353Y-119528701D01*
X94473674Y-119649643D01*
X94476207Y-119656882D01*
X94556850Y-119766150D01*
X94666118Y-119846793D01*
X94708845Y-119861744D01*
X94794299Y-119891646D01*
X94824730Y-119894500D01*
X94824734Y-119894500D01*
X96183270Y-119894500D01*
X96213699Y-119891646D01*
X96213701Y-119891646D01*
X96287980Y-119865654D01*
X96341882Y-119846793D01*
X96444946Y-119770729D01*
X96510575Y-119746759D01*
X96518579Y-119746500D01*
X101085404Y-119746500D01*
X101152443Y-119766185D01*
X101198198Y-119818989D01*
X101202445Y-119829544D01*
X101230206Y-119908880D01*
X101230207Y-119908882D01*
X101310850Y-120018150D01*
X101420118Y-120098793D01*
X101484033Y-120121158D01*
X101540807Y-120161878D01*
X101566555Y-120226830D01*
X101553099Y-120295392D01*
X101504712Y-120345795D01*
X101482082Y-120355904D01*
X101313878Y-120411642D01*
X101313875Y-120411643D01*
X101164654Y-120503684D01*
X101040684Y-120627654D01*
X100948643Y-120776875D01*
X100948641Y-120776880D01*
X100893494Y-120943302D01*
X100893493Y-120943309D01*
X100883000Y-121046013D01*
X100883000Y-121096000D01*
X103332999Y-121096000D01*
X103332999Y-121046028D01*
X103332998Y-121046013D01*
X103322505Y-120943302D01*
X103275015Y-120799986D01*
X106775001Y-120799986D01*
X106785494Y-120902697D01*
X106840641Y-121069119D01*
X106840643Y-121069124D01*
X106932684Y-121218345D01*
X107056654Y-121342315D01*
X107205875Y-121434356D01*
X107205880Y-121434358D01*
X107372302Y-121489505D01*
X107372309Y-121489506D01*
X107475019Y-121499999D01*
X107749999Y-121499999D01*
X108250000Y-121499999D01*
X108524972Y-121499999D01*
X108524986Y-121499998D01*
X108627697Y-121489505D01*
X108794119Y-121434358D01*
X108794124Y-121434356D01*
X108943345Y-121342315D01*
X109067315Y-121218345D01*
X109159356Y-121069124D01*
X109159358Y-121069119D01*
X109214505Y-120902697D01*
X109214506Y-120902690D01*
X109224999Y-120799986D01*
X109225000Y-120799973D01*
X109225000Y-120750000D01*
X108250000Y-120750000D01*
X108250000Y-121499999D01*
X107749999Y-121499999D01*
X107750000Y-121499998D01*
X107750000Y-120750000D01*
X106775001Y-120750000D01*
X106775001Y-120799986D01*
X103275015Y-120799986D01*
X103267358Y-120776880D01*
X103267354Y-120776871D01*
X103259252Y-120763736D01*
X103259251Y-120763735D01*
X103175315Y-120627654D01*
X103051345Y-120503684D01*
X102902124Y-120411643D01*
X102902119Y-120411641D01*
X102733917Y-120355905D01*
X102676472Y-120316133D01*
X102649649Y-120251617D01*
X102661964Y-120182841D01*
X102709507Y-120131641D01*
X102731966Y-120121158D01*
X102731972Y-120121156D01*
X102795882Y-120098793D01*
X102905150Y-120018150D01*
X102985793Y-119908882D01*
X103008219Y-119844790D01*
X103030646Y-119780701D01*
X103030646Y-119780699D01*
X103033500Y-119750269D01*
X103033500Y-119141730D01*
X103030646Y-119111300D01*
X103030646Y-119111298D01*
X102986459Y-118985022D01*
X102985793Y-118983118D01*
X102905150Y-118873850D01*
X102795882Y-118793207D01*
X102795879Y-118793206D01*
X102699707Y-118759553D01*
X102642931Y-118718831D01*
X102617185Y-118653878D01*
X102630642Y-118585316D01*
X102646121Y-118564195D01*
X102645553Y-118563760D01*
X102650492Y-118557321D01*
X102650500Y-118557314D01*
X102716392Y-118443186D01*
X102750500Y-118315892D01*
X102750500Y-118184108D01*
X102716392Y-118056814D01*
X102650500Y-117942686D01*
X102557314Y-117849500D01*
X102489941Y-117810602D01*
X102443187Y-117783608D01*
X102379539Y-117766554D01*
X102315892Y-117749500D01*
X102184108Y-117749500D01*
X102056814Y-117783608D01*
X102043974Y-117791020D01*
X102043970Y-117791022D01*
X101942689Y-117849497D01*
X101942683Y-117849502D01*
X101849502Y-117942683D01*
X101849500Y-117942686D01*
X101783608Y-118056812D01*
X101749500Y-118184108D01*
X101749500Y-118315891D01*
X101783608Y-118443188D01*
X101790886Y-118455792D01*
X101795036Y-118471281D01*
X101802477Y-118482859D01*
X101807500Y-118517794D01*
X101807500Y-118621500D01*
X101787815Y-118688539D01*
X101735011Y-118734294D01*
X101683500Y-118745500D01*
X101578730Y-118745500D01*
X101548300Y-118748353D01*
X101548298Y-118748353D01*
X101420119Y-118793206D01*
X101420117Y-118793207D01*
X101310850Y-118873850D01*
X101230207Y-118983117D01*
X101202445Y-119062456D01*
X101161723Y-119119231D01*
X101096770Y-119144978D01*
X101085404Y-119145500D01*
X96703500Y-119145500D01*
X96636461Y-119125815D01*
X96590706Y-119073011D01*
X96579500Y-119021500D01*
X96579500Y-118689730D01*
X96576646Y-118659300D01*
X96576646Y-118659298D01*
X96531793Y-118531119D01*
X96531792Y-118531117D01*
X96521959Y-118517794D01*
X96451150Y-118421850D01*
X96341882Y-118341207D01*
X96341880Y-118341206D01*
X96267288Y-118315105D01*
X96210512Y-118274383D01*
X96184765Y-118209430D01*
X96198222Y-118140869D01*
X96246609Y-118090466D01*
X96251948Y-118087579D01*
X96355524Y-118034804D01*
X96495602Y-117933032D01*
X96618032Y-117810602D01*
X96719804Y-117670524D01*
X96798408Y-117516255D01*
X96851914Y-117351584D01*
X96853115Y-117344000D01*
X95784330Y-117344000D01*
X95804075Y-117324255D01*
X95853444Y-117238745D01*
X95879000Y-117143370D01*
X95879000Y-117044630D01*
X95853444Y-116949255D01*
X95804075Y-116863745D01*
X95784330Y-116844000D01*
X96853115Y-116844000D01*
X96853115Y-116843999D01*
X96851914Y-116836415D01*
X96798408Y-116671744D01*
X96719804Y-116517475D01*
X96618032Y-116377397D01*
X96495602Y-116254967D01*
X96355524Y-116153195D01*
X96201257Y-116074591D01*
X96036584Y-116021085D01*
X95865571Y-115994000D01*
X95754000Y-115994000D01*
X95754000Y-116813670D01*
X95734255Y-116793925D01*
X95648745Y-116744556D01*
X95553370Y-116719000D01*
X95454630Y-116719000D01*
X95359255Y-116744556D01*
X95273745Y-116793925D01*
X95254000Y-116813670D01*
X95254000Y-115994000D01*
X95142429Y-115994000D01*
X94971415Y-116021085D01*
X94806742Y-116074591D01*
X94652475Y-116153195D01*
X94512397Y-116254967D01*
X94389967Y-116377397D01*
X94288195Y-116517475D01*
X94209591Y-116671744D01*
X94156085Y-116836415D01*
X94154884Y-116843999D01*
X93750500Y-116843999D01*
X93750500Y-109824247D01*
X95165500Y-109824247D01*
X95165500Y-111663752D01*
X95177131Y-111722229D01*
X95177132Y-111722230D01*
X95221447Y-111788552D01*
X95287769Y-111832867D01*
X95287770Y-111832868D01*
X95346247Y-111844499D01*
X95346250Y-111844500D01*
X95346252Y-111844500D01*
X97185750Y-111844500D01*
X97185751Y-111844499D01*
X97200568Y-111841552D01*
X97244229Y-111832868D01*
X97244229Y-111832867D01*
X97244231Y-111832867D01*
X97310552Y-111788552D01*
X97354867Y-111722231D01*
X97354867Y-111722229D01*
X97354868Y-111722229D01*
X97366499Y-111663752D01*
X97366500Y-111663750D01*
X97366500Y-111629500D01*
X97386185Y-111562461D01*
X97438989Y-111516706D01*
X97490500Y-111505500D01*
X98312030Y-111505500D01*
X98379069Y-111525185D01*
X98424824Y-111577989D01*
X98429071Y-111588544D01*
X98455387Y-111663750D01*
X98461207Y-111680382D01*
X98541850Y-111789650D01*
X98651118Y-111870293D01*
X98693845Y-111885244D01*
X98779299Y-111915146D01*
X98809730Y-111918000D01*
X98809734Y-111918000D01*
X99818270Y-111918000D01*
X99848699Y-111915146D01*
X99848701Y-111915146D01*
X99912790Y-111892719D01*
X99976882Y-111870293D01*
X100086150Y-111789650D01*
X100166793Y-111680382D01*
X100191951Y-111608485D01*
X100211646Y-111552201D01*
X100211646Y-111552199D01*
X100214500Y-111521769D01*
X100214500Y-110888230D01*
X100211646Y-110857800D01*
X100211646Y-110857798D01*
X100173557Y-110748949D01*
X100166793Y-110729618D01*
X100086150Y-110620350D01*
X99976882Y-110539707D01*
X99976880Y-110539706D01*
X99848700Y-110494853D01*
X99818270Y-110492000D01*
X99818266Y-110492000D01*
X98809734Y-110492000D01*
X98809730Y-110492000D01*
X98779300Y-110494853D01*
X98779298Y-110494853D01*
X98651119Y-110539706D01*
X98651117Y-110539707D01*
X98541850Y-110620350D01*
X98461207Y-110729617D01*
X98429071Y-110821456D01*
X98388349Y-110878231D01*
X98323396Y-110903978D01*
X98312030Y-110904500D01*
X97490500Y-110904500D01*
X97423461Y-110884815D01*
X97377706Y-110832011D01*
X97366500Y-110780500D01*
X97366500Y-109824249D01*
X97366499Y-109824247D01*
X97354868Y-109765770D01*
X97354867Y-109765769D01*
X97310552Y-109699447D01*
X97244230Y-109655132D01*
X97244229Y-109655131D01*
X97185752Y-109643500D01*
X97185748Y-109643500D01*
X95346252Y-109643500D01*
X95346247Y-109643500D01*
X95287770Y-109655131D01*
X95287769Y-109655132D01*
X95221447Y-109699447D01*
X95177132Y-109765769D01*
X95177131Y-109765770D01*
X95165500Y-109824247D01*
X93750500Y-109824247D01*
X93750500Y-109465986D01*
X100794501Y-109465986D01*
X100804994Y-109568697D01*
X100860141Y-109735119D01*
X100860143Y-109735124D01*
X100952184Y-109884345D01*
X101076154Y-110008315D01*
X101225375Y-110100356D01*
X101225380Y-110100358D01*
X101391802Y-110155505D01*
X101391809Y-110155506D01*
X101494519Y-110165999D01*
X101556999Y-110165998D01*
X101557000Y-110165998D01*
X101557000Y-109216000D01*
X100794501Y-109216000D01*
X100794501Y-109465986D01*
X93750500Y-109465986D01*
X93750500Y-108466013D01*
X100794500Y-108466013D01*
X100794500Y-108716000D01*
X101557000Y-108716000D01*
X101557000Y-107766000D01*
X101556999Y-107765999D01*
X101494528Y-107766000D01*
X101494511Y-107766001D01*
X101391802Y-107776494D01*
X101225380Y-107831641D01*
X101225375Y-107831643D01*
X101076154Y-107923684D01*
X100952184Y-108047654D01*
X100860143Y-108196875D01*
X100860141Y-108196880D01*
X100804994Y-108363302D01*
X100804993Y-108363309D01*
X100794500Y-108466013D01*
X93750500Y-108466013D01*
X93750500Y-108006092D01*
X93751097Y-107993939D01*
X93755424Y-107950000D01*
X93763704Y-107865928D01*
X93768442Y-107842104D01*
X93804010Y-107724855D01*
X93813306Y-107702413D01*
X93871061Y-107594363D01*
X93884556Y-107574165D01*
X93962279Y-107479458D01*
X93979458Y-107462279D01*
X94074165Y-107384556D01*
X94094363Y-107371061D01*
X94202413Y-107313306D01*
X94224855Y-107304010D01*
X94342104Y-107268442D01*
X94365928Y-107263704D01*
X94484614Y-107252015D01*
X94493939Y-107251097D01*
X94506092Y-107250500D01*
X94573554Y-107250500D01*
X94574514Y-107250434D01*
X104475539Y-107241917D01*
X104542594Y-107261544D01*
X104588394Y-107314309D01*
X104598397Y-107383458D01*
X104586129Y-107422211D01*
X104551915Y-107489359D01*
X104493548Y-107668997D01*
X104464000Y-107855552D01*
X104464000Y-108044447D01*
X104482228Y-108159536D01*
X104473273Y-108228830D01*
X104428277Y-108282282D01*
X104361525Y-108302921D01*
X104294212Y-108284196D01*
X104259985Y-108252567D01*
X104216651Y-108193851D01*
X104177430Y-108164905D01*
X104107382Y-108113207D01*
X104107380Y-108113206D01*
X103979200Y-108068353D01*
X103948770Y-108065500D01*
X103948766Y-108065500D01*
X103315234Y-108065500D01*
X103315230Y-108065500D01*
X103284800Y-108068353D01*
X103284798Y-108068353D01*
X103156619Y-108113206D01*
X103156617Y-108113207D01*
X103047350Y-108193850D01*
X102986276Y-108276602D01*
X102930628Y-108318853D01*
X102860972Y-108324311D01*
X102799423Y-108291243D01*
X102768800Y-108241972D01*
X102753858Y-108196880D01*
X102753856Y-108196875D01*
X102661815Y-108047654D01*
X102537845Y-107923684D01*
X102388624Y-107831643D01*
X102388619Y-107831641D01*
X102222197Y-107776494D01*
X102222190Y-107776493D01*
X102119486Y-107766000D01*
X102057000Y-107766000D01*
X102057000Y-110165999D01*
X102119472Y-110165999D01*
X102119486Y-110165998D01*
X102222197Y-110155505D01*
X102388619Y-110100358D01*
X102388624Y-110100356D01*
X102537845Y-110008315D01*
X102661815Y-109884345D01*
X102753856Y-109735124D01*
X102753859Y-109735117D01*
X102768800Y-109690028D01*
X102808572Y-109632583D01*
X102873087Y-109605759D01*
X102941863Y-109618073D01*
X102986275Y-109655396D01*
X103047350Y-109738150D01*
X103156618Y-109818793D01*
X103198914Y-109833593D01*
X103284799Y-109863646D01*
X103315230Y-109866500D01*
X103315234Y-109866500D01*
X103583000Y-109866500D01*
X103650039Y-109886185D01*
X103695794Y-109938989D01*
X103707000Y-109990500D01*
X103707000Y-112725500D01*
X103687315Y-112792539D01*
X103634511Y-112838294D01*
X103583000Y-112849500D01*
X103461739Y-112849500D01*
X103393608Y-112859426D01*
X103288514Y-112910803D01*
X103205803Y-112993514D01*
X103154426Y-113098608D01*
X103144500Y-113166739D01*
X103144500Y-113533260D01*
X103154426Y-113601391D01*
X103205803Y-113706485D01*
X103288514Y-113789196D01*
X103288515Y-113789196D01*
X103288517Y-113789198D01*
X103300557Y-113795084D01*
X103352140Y-113842209D01*
X103370056Y-113909743D01*
X103348617Y-113976242D01*
X103321594Y-114004855D01*
X103315487Y-114009541D01*
X103106681Y-114218348D01*
X103045358Y-114251833D01*
X102975666Y-114246849D01*
X102919733Y-114204977D01*
X102895316Y-114139513D01*
X102895000Y-114130667D01*
X102895000Y-114084365D01*
X102894999Y-114084350D01*
X102892100Y-114047510D01*
X102892099Y-114047504D01*
X102846283Y-113889806D01*
X102846282Y-113889803D01*
X102762685Y-113748447D01*
X102762678Y-113748438D01*
X102646559Y-113632319D01*
X102643496Y-113629943D01*
X102641710Y-113627470D01*
X102641040Y-113626800D01*
X102641148Y-113626691D01*
X102602591Y-113573299D01*
X102595500Y-113531966D01*
X102595500Y-113166739D01*
X102585573Y-113098608D01*
X102573518Y-113073948D01*
X102534198Y-112993517D01*
X102534196Y-112993515D01*
X102534196Y-112993514D01*
X102451485Y-112910803D01*
X102346391Y-112859426D01*
X102278261Y-112849500D01*
X102278260Y-112849500D01*
X101708333Y-112849500D01*
X101641294Y-112829815D01*
X101620652Y-112813181D01*
X101597012Y-112789541D01*
X101597004Y-112789535D01*
X101528495Y-112749982D01*
X101528490Y-112749979D01*
X101486840Y-112738819D01*
X101452062Y-112729500D01*
X101452060Y-112729500D01*
X100315970Y-112729500D01*
X100248931Y-112709815D01*
X100203176Y-112657011D01*
X100198929Y-112646456D01*
X100178696Y-112588636D01*
X100166793Y-112554618D01*
X100086150Y-112445350D01*
X99976882Y-112364707D01*
X99976880Y-112364706D01*
X99848700Y-112319853D01*
X99818270Y-112317000D01*
X99818266Y-112317000D01*
X98809734Y-112317000D01*
X98809730Y-112317000D01*
X98779300Y-112319853D01*
X98779298Y-112319853D01*
X98651119Y-112364706D01*
X98651117Y-112364707D01*
X98541850Y-112445350D01*
X98461207Y-112554617D01*
X98461206Y-112554619D01*
X98416353Y-112682798D01*
X98416353Y-112682800D01*
X98413500Y-112713230D01*
X98413500Y-113346769D01*
X98416353Y-113377199D01*
X98416353Y-113377201D01*
X98460283Y-113502741D01*
X98461207Y-113505382D01*
X98541850Y-113614650D01*
X98651118Y-113695293D01*
X98683103Y-113706485D01*
X98779299Y-113740146D01*
X98809730Y-113743000D01*
X98809734Y-113743000D01*
X99818270Y-113743000D01*
X99848699Y-113740146D01*
X99848701Y-113740146D01*
X99912790Y-113717719D01*
X99976882Y-113695293D01*
X100086150Y-113614650D01*
X100166793Y-113505382D01*
X100192463Y-113432021D01*
X100198929Y-113413544D01*
X100239651Y-113356769D01*
X100304604Y-113331022D01*
X100315970Y-113330500D01*
X100745500Y-113330500D01*
X100754185Y-113333050D01*
X100763147Y-113331762D01*
X100787187Y-113342740D01*
X100812539Y-113350185D01*
X100818466Y-113357025D01*
X100826703Y-113360787D01*
X100840992Y-113383021D01*
X100858294Y-113402989D01*
X100860581Y-113413503D01*
X100864477Y-113419565D01*
X100869500Y-113454500D01*
X100869500Y-113531967D01*
X100849815Y-113599006D01*
X100821504Y-113629944D01*
X100818445Y-113632316D01*
X100702318Y-113748442D01*
X100702314Y-113748447D01*
X100618718Y-113889801D01*
X100572899Y-114047513D01*
X100572704Y-114049998D01*
X100572705Y-114050000D01*
X101608500Y-114050000D01*
X101675539Y-114069685D01*
X101721294Y-114122489D01*
X101732500Y-114174000D01*
X101732500Y-114426000D01*
X101712815Y-114493039D01*
X101660011Y-114538794D01*
X101608500Y-114550000D01*
X100572705Y-114550000D01*
X100572704Y-114550001D01*
X100572899Y-114552488D01*
X100595268Y-114629483D01*
X100595068Y-114699353D01*
X100557125Y-114758022D01*
X100493486Y-114786865D01*
X100444098Y-114783852D01*
X100352940Y-114759427D01*
X100315892Y-114749500D01*
X100184108Y-114749500D01*
X100056812Y-114783608D01*
X99942686Y-114849500D01*
X99942683Y-114849502D01*
X99849502Y-114942683D01*
X99849500Y-114942686D01*
X99783608Y-115056812D01*
X99749500Y-115184108D01*
X99749500Y-115275167D01*
X99729815Y-115342206D01*
X99677011Y-115387961D01*
X99607853Y-115397905D01*
X99544297Y-115368880D01*
X99537819Y-115362848D01*
X97393886Y-113218915D01*
X97360401Y-113157592D01*
X97359094Y-113150631D01*
X97339403Y-113026303D01*
X97339402Y-113026302D01*
X97339402Y-113026299D01*
X97285873Y-112861555D01*
X97207232Y-112707212D01*
X97105414Y-112567072D01*
X96982928Y-112444586D01*
X96842788Y-112342768D01*
X96688445Y-112264127D01*
X96523701Y-112210598D01*
X96523699Y-112210597D01*
X96523698Y-112210597D01*
X96392271Y-112189781D01*
X96352611Y-112183500D01*
X96179389Y-112183500D01*
X96139728Y-112189781D01*
X96008302Y-112210597D01*
X95843552Y-112264128D01*
X95689211Y-112342768D01*
X95630727Y-112385260D01*
X95549072Y-112444586D01*
X95549070Y-112444588D01*
X95549069Y-112444588D01*
X95426588Y-112567069D01*
X95426588Y-112567070D01*
X95426586Y-112567072D01*
X95403026Y-112599500D01*
X95324768Y-112707211D01*
X95246128Y-112861552D01*
X95192597Y-113026302D01*
X95172906Y-113150631D01*
X95165500Y-113197389D01*
X95165500Y-113370611D01*
X95170234Y-113400499D01*
X95186845Y-113505382D01*
X95192598Y-113541701D01*
X95242503Y-113695293D01*
X95246128Y-113706447D01*
X95298444Y-113809123D01*
X95324768Y-113860788D01*
X95426586Y-114000928D01*
X95549072Y-114123414D01*
X95689212Y-114225232D01*
X95843555Y-114303873D01*
X96008299Y-114357402D01*
X96179389Y-114384500D01*
X96179390Y-114384500D01*
X96352610Y-114384500D01*
X96352611Y-114384500D01*
X96523701Y-114357402D01*
X96688445Y-114303873D01*
X96842788Y-114225232D01*
X96982928Y-114123414D01*
X97105414Y-114000928D01*
X97112882Y-113990648D01*
X97168212Y-113947983D01*
X97237825Y-113942004D01*
X97299621Y-113974609D01*
X97300882Y-113975853D01*
X100759540Y-117434511D01*
X100815489Y-117490460D01*
X100815491Y-117490461D01*
X100815495Y-117490464D01*
X100860167Y-117516255D01*
X100884011Y-117530021D01*
X100960438Y-117550500D01*
X100960440Y-117550500D01*
X101983406Y-117550500D01*
X102047062Y-117550500D01*
X102123489Y-117530021D01*
X102159938Y-117508977D01*
X102159939Y-117508977D01*
X102192004Y-117490464D01*
X102192011Y-117490460D01*
X102247960Y-117434511D01*
X103895652Y-115786819D01*
X103956975Y-115753334D01*
X103983333Y-115750500D01*
X104553261Y-115750500D01*
X104593692Y-115744609D01*
X104621393Y-115740573D01*
X104726483Y-115689198D01*
X104809198Y-115606483D01*
X104809200Y-115606477D01*
X104812077Y-115602450D01*
X104867051Y-115559326D01*
X104912997Y-115550500D01*
X105422167Y-115550500D01*
X105451607Y-115559144D01*
X105481594Y-115565668D01*
X105486609Y-115569422D01*
X105489206Y-115570185D01*
X105509848Y-115586819D01*
X105553728Y-115630699D01*
X105587213Y-115692022D01*
X105582229Y-115761714D01*
X105580609Y-115765830D01*
X105560107Y-115815328D01*
X105560104Y-115815336D01*
X105525500Y-115989304D01*
X105525500Y-116166695D01*
X105560103Y-116340658D01*
X105560106Y-116340667D01*
X105627983Y-116504540D01*
X105627990Y-116504553D01*
X105726535Y-116652034D01*
X105726538Y-116652038D01*
X105851961Y-116777461D01*
X105851965Y-116777464D01*
X105999446Y-116876009D01*
X105999459Y-116876016D01*
X106089185Y-116913181D01*
X106163334Y-116943894D01*
X106163336Y-116943894D01*
X106163341Y-116943896D01*
X106337304Y-116978499D01*
X106337307Y-116978500D01*
X106337309Y-116978500D01*
X106514693Y-116978500D01*
X106514694Y-116978499D01*
X106572682Y-116966964D01*
X106688658Y-116943896D01*
X106688661Y-116943894D01*
X106688666Y-116943894D01*
X106846690Y-116878439D01*
X106852540Y-116876016D01*
X106852540Y-116876015D01*
X106852547Y-116876013D01*
X107000035Y-116777464D01*
X107125464Y-116652035D01*
X107224013Y-116504547D01*
X107244516Y-116455047D01*
X107288356Y-116400645D01*
X107354650Y-116378579D01*
X107359077Y-116378500D01*
X107811500Y-116378500D01*
X107820185Y-116381050D01*
X107829147Y-116379762D01*
X107853187Y-116390740D01*
X107878539Y-116398185D01*
X107884466Y-116405025D01*
X107892703Y-116408787D01*
X107906992Y-116431021D01*
X107924294Y-116450989D01*
X107926581Y-116461503D01*
X107930477Y-116467565D01*
X107935500Y-116502500D01*
X107935500Y-116506167D01*
X107915815Y-116573206D01*
X107899181Y-116593848D01*
X107759541Y-116733487D01*
X107759535Y-116733495D01*
X107719982Y-116802004D01*
X107719979Y-116802009D01*
X107699500Y-116878439D01*
X107699500Y-117775500D01*
X107679815Y-117842539D01*
X107627011Y-117888294D01*
X107575500Y-117899500D01*
X107470730Y-117899500D01*
X107440300Y-117902353D01*
X107440298Y-117902353D01*
X107312119Y-117947206D01*
X107312117Y-117947207D01*
X107202850Y-118027850D01*
X107122207Y-118137117D01*
X107122206Y-118137119D01*
X107077353Y-118265298D01*
X107077353Y-118265300D01*
X107074500Y-118295730D01*
X107074500Y-118904269D01*
X107077353Y-118934699D01*
X107077353Y-118934701D01*
X107122058Y-119062456D01*
X107122207Y-119062882D01*
X107202850Y-119172150D01*
X107312118Y-119252793D01*
X107376033Y-119275158D01*
X107432807Y-119315878D01*
X107458555Y-119380830D01*
X107445099Y-119449392D01*
X107396712Y-119499795D01*
X107374082Y-119509904D01*
X107205878Y-119565642D01*
X107205875Y-119565643D01*
X107056654Y-119657684D01*
X106932684Y-119781654D01*
X106840643Y-119930875D01*
X106840641Y-119930880D01*
X106785494Y-120097302D01*
X106785493Y-120097309D01*
X106775000Y-120200013D01*
X106775000Y-120250000D01*
X109224999Y-120250000D01*
X109224999Y-120200028D01*
X109224998Y-120200013D01*
X109214505Y-120097302D01*
X109159358Y-119930880D01*
X109159356Y-119930875D01*
X109067315Y-119781654D01*
X108943345Y-119657684D01*
X108794124Y-119565643D01*
X108794119Y-119565641D01*
X108625917Y-119509905D01*
X108568472Y-119470133D01*
X108541649Y-119405617D01*
X108553964Y-119336841D01*
X108601507Y-119285641D01*
X108623966Y-119275158D01*
X108623972Y-119275156D01*
X108687882Y-119252793D01*
X108797150Y-119172150D01*
X108877793Y-119062882D01*
X108912386Y-118964021D01*
X108922646Y-118934701D01*
X108922646Y-118934699D01*
X108925500Y-118904269D01*
X108925500Y-118295730D01*
X108922646Y-118265300D01*
X108922646Y-118265298D01*
X108889006Y-118169163D01*
X108877793Y-118137118D01*
X108797150Y-118027850D01*
X108687882Y-117947207D01*
X108687880Y-117947206D01*
X108559700Y-117902353D01*
X108529270Y-117899500D01*
X108529266Y-117899500D01*
X108424500Y-117899500D01*
X108357461Y-117879815D01*
X108311706Y-117827011D01*
X108300500Y-117775500D01*
X108300500Y-117256500D01*
X108320185Y-117189461D01*
X108372989Y-117143706D01*
X108424500Y-117132500D01*
X108844493Y-117132500D01*
X108944121Y-117116720D01*
X108944121Y-117116719D01*
X108944126Y-117116719D01*
X109064220Y-117055528D01*
X109159528Y-116960220D01*
X109220719Y-116840126D01*
X109226756Y-116802011D01*
X109236500Y-116740493D01*
X109236500Y-115923506D01*
X109220720Y-115823878D01*
X109220719Y-115823876D01*
X109220719Y-115823874D01*
X109159528Y-115703780D01*
X109159526Y-115703778D01*
X109159523Y-115703774D01*
X109064225Y-115608476D01*
X109064221Y-115608473D01*
X109064220Y-115608472D01*
X108944126Y-115547281D01*
X108944124Y-115547280D01*
X108944121Y-115547279D01*
X108844493Y-115531500D01*
X108844488Y-115531500D01*
X108327512Y-115531500D01*
X108327507Y-115531500D01*
X108227878Y-115547279D01*
X108107778Y-115608473D01*
X108107774Y-115608476D01*
X108012476Y-115703774D01*
X108012471Y-115703781D01*
X108009408Y-115709794D01*
X107961434Y-115760590D01*
X107898923Y-115777500D01*
X107359077Y-115777500D01*
X107292038Y-115757815D01*
X107246283Y-115705011D01*
X107244527Y-115700978D01*
X107224013Y-115651453D01*
X107224009Y-115651446D01*
X107125464Y-115503965D01*
X107125461Y-115503961D01*
X107000038Y-115378538D01*
X107000034Y-115378535D01*
X106852553Y-115279990D01*
X106852540Y-115279983D01*
X106688667Y-115212106D01*
X106688658Y-115212103D01*
X106514694Y-115177500D01*
X106514691Y-115177500D01*
X106337309Y-115177500D01*
X106337306Y-115177500D01*
X106163336Y-115212104D01*
X106163328Y-115212107D01*
X106113830Y-115232609D01*
X106044360Y-115240076D01*
X105981882Y-115208800D01*
X105978699Y-115205728D01*
X105782512Y-115009541D01*
X105782511Y-115009540D01*
X105763574Y-114998607D01*
X105763574Y-114998605D01*
X105763571Y-114998605D01*
X105713994Y-114969981D01*
X105713991Y-114969979D01*
X105675775Y-114959739D01*
X105637562Y-114949500D01*
X105637560Y-114949500D01*
X104912997Y-114949500D01*
X104845958Y-114929815D01*
X104834075Y-114921142D01*
X104815013Y-114905412D01*
X104809198Y-114893517D01*
X104726483Y-114810802D01*
X104662382Y-114779465D01*
X104651084Y-114770142D01*
X104639376Y-114752854D01*
X104623964Y-114738773D01*
X104620180Y-114724510D01*
X104611905Y-114712291D01*
X104611402Y-114691418D01*
X104606049Y-114671239D01*
X104610577Y-114657194D01*
X104610222Y-114642442D01*
X104621083Y-114624611D01*
X104627490Y-114604740D01*
X104638891Y-114595373D01*
X104646569Y-114582770D01*
X104665347Y-114573641D01*
X104681479Y-114560390D01*
X104700639Y-114556484D01*
X104709407Y-114552223D01*
X104717068Y-114553136D01*
X104730006Y-114550500D01*
X106606560Y-114550500D01*
X106606562Y-114550500D01*
X106682989Y-114530021D01*
X106751511Y-114490460D01*
X106807460Y-114434511D01*
X108503152Y-112738819D01*
X108564475Y-112705334D01*
X108590833Y-112702500D01*
X109235761Y-112702500D01*
X109258471Y-112699191D01*
X109303893Y-112692573D01*
X109408983Y-112641198D01*
X109491698Y-112558483D01*
X109543073Y-112453393D01*
X109553000Y-112385260D01*
X109553000Y-112018740D01*
X109543073Y-111950607D01*
X109491698Y-111845517D01*
X109491696Y-111845515D01*
X109491696Y-111845514D01*
X109408985Y-111762803D01*
X109303891Y-111711426D01*
X109235761Y-111701500D01*
X109235760Y-111701500D01*
X107994240Y-111701500D01*
X107994239Y-111701500D01*
X107926108Y-111711426D01*
X107821014Y-111762803D01*
X107738303Y-111845514D01*
X107686926Y-111950608D01*
X107677000Y-112018739D01*
X107677000Y-112385260D01*
X107686926Y-112453392D01*
X107730691Y-112542914D01*
X107742451Y-112611788D01*
X107715107Y-112676085D01*
X107706972Y-112685056D01*
X107208538Y-113183490D01*
X107147215Y-113216975D01*
X107077523Y-113211991D01*
X107021590Y-113170119D01*
X106997173Y-113104655D01*
X107000098Y-113074034D01*
X106999439Y-113073948D01*
X107000500Y-113065890D01*
X107000500Y-112934110D01*
X107000500Y-112934108D01*
X106966392Y-112806814D01*
X106900500Y-112692686D01*
X106807314Y-112599500D01*
X106807313Y-112599499D01*
X106788498Y-112588636D01*
X106740283Y-112538068D01*
X106726500Y-112481250D01*
X106726500Y-111931077D01*
X106746185Y-111864038D01*
X106798989Y-111818283D01*
X106803048Y-111816516D01*
X106816771Y-111810831D01*
X106852547Y-111796013D01*
X107000035Y-111697464D01*
X107125464Y-111572035D01*
X107224013Y-111424547D01*
X107291894Y-111260666D01*
X107300937Y-111215207D01*
X107326499Y-111086695D01*
X107326500Y-111086693D01*
X107326500Y-111068739D01*
X109552000Y-111068739D01*
X109552000Y-111435260D01*
X109561926Y-111503391D01*
X109561927Y-111503393D01*
X109603554Y-111588544D01*
X109613303Y-111608485D01*
X109696014Y-111691196D01*
X109696015Y-111691196D01*
X109696017Y-111691198D01*
X109801107Y-111742573D01*
X109835173Y-111747536D01*
X109869239Y-111752500D01*
X109869240Y-111752500D01*
X111110761Y-111752500D01*
X111133471Y-111749191D01*
X111178893Y-111742573D01*
X111283983Y-111691198D01*
X111366698Y-111608483D01*
X111418073Y-111503393D01*
X111428000Y-111435260D01*
X111428000Y-111068740D01*
X111418073Y-111000607D01*
X111366698Y-110895517D01*
X111366696Y-110895515D01*
X111366696Y-110895514D01*
X111283985Y-110812803D01*
X111178891Y-110761426D01*
X111110761Y-110751500D01*
X111110760Y-110751500D01*
X110914500Y-110751500D01*
X110905814Y-110748949D01*
X110896853Y-110750238D01*
X110872812Y-110739259D01*
X110847461Y-110731815D01*
X110841533Y-110724974D01*
X110833297Y-110721213D01*
X110819007Y-110698978D01*
X110801706Y-110679011D01*
X110799418Y-110668496D01*
X110795523Y-110662435D01*
X110790500Y-110627500D01*
X110790500Y-110435833D01*
X110810185Y-110368794D01*
X110826819Y-110348152D01*
X110888152Y-110286819D01*
X110949475Y-110253334D01*
X110975833Y-110250500D01*
X111065890Y-110250500D01*
X111065892Y-110250500D01*
X111193186Y-110216392D01*
X111307314Y-110150500D01*
X111400500Y-110057314D01*
X111466392Y-109943186D01*
X111500500Y-109815892D01*
X111500500Y-109684108D01*
X111466392Y-109556814D01*
X111400500Y-109442686D01*
X111307314Y-109349500D01*
X111250250Y-109316554D01*
X111193187Y-109283608D01*
X111129539Y-109266554D01*
X111065892Y-109249500D01*
X110934108Y-109249500D01*
X110806812Y-109283608D01*
X110692686Y-109349500D01*
X110692683Y-109349502D01*
X110599502Y-109442683D01*
X110599500Y-109442686D01*
X110533608Y-109556812D01*
X110499500Y-109684108D01*
X110499500Y-109774166D01*
X110490855Y-109803606D01*
X110484332Y-109833593D01*
X110480577Y-109838608D01*
X110479815Y-109841205D01*
X110463185Y-109861842D01*
X110305489Y-110019540D01*
X110305488Y-110019540D01*
X110305487Y-110019541D01*
X110249541Y-110075487D01*
X110249535Y-110075495D01*
X110209982Y-110144004D01*
X110209979Y-110144009D01*
X110202574Y-110171646D01*
X110190585Y-110216391D01*
X110189500Y-110220439D01*
X110189500Y-110627500D01*
X110169815Y-110694539D01*
X110117011Y-110740294D01*
X110065500Y-110751500D01*
X109869239Y-110751500D01*
X109801108Y-110761426D01*
X109696014Y-110812803D01*
X109613303Y-110895514D01*
X109561926Y-111000608D01*
X109552000Y-111068739D01*
X107326500Y-111068739D01*
X107326500Y-110909306D01*
X107326499Y-110909304D01*
X107291896Y-110735341D01*
X107291893Y-110735332D01*
X107290517Y-110732011D01*
X107238961Y-110607540D01*
X107224016Y-110571459D01*
X107224009Y-110571446D01*
X107125464Y-110423965D01*
X107125461Y-110423961D01*
X107000038Y-110298538D01*
X107000034Y-110298535D01*
X106852553Y-110199990D01*
X106852540Y-110199983D01*
X106688667Y-110132106D01*
X106688658Y-110132103D01*
X106514694Y-110097500D01*
X106514691Y-110097500D01*
X106337309Y-110097500D01*
X106337306Y-110097500D01*
X106163341Y-110132103D01*
X106163332Y-110132106D01*
X105999459Y-110199983D01*
X105999446Y-110199990D01*
X105851965Y-110298535D01*
X105851961Y-110298538D01*
X105726538Y-110423961D01*
X105726535Y-110423965D01*
X105627990Y-110571446D01*
X105627983Y-110571459D01*
X105560106Y-110735332D01*
X105560103Y-110735341D01*
X105525500Y-110909304D01*
X105525500Y-111086695D01*
X105560103Y-111260658D01*
X105560106Y-111260667D01*
X105627983Y-111424540D01*
X105627990Y-111424553D01*
X105726535Y-111572034D01*
X105726538Y-111572038D01*
X105851961Y-111697461D01*
X105851965Y-111697464D01*
X105999449Y-111796011D01*
X105999451Y-111796011D01*
X105999453Y-111796013D01*
X106029364Y-111808402D01*
X106048952Y-111816516D01*
X106103356Y-111860356D01*
X106125421Y-111926650D01*
X106125500Y-111931077D01*
X106125500Y-112616710D01*
X106105815Y-112683749D01*
X106099875Y-112692197D01*
X106099502Y-112692681D01*
X106033608Y-112806812D01*
X106018941Y-112861552D01*
X105999500Y-112934108D01*
X105999500Y-113065892D01*
X106016554Y-113129539D01*
X106033608Y-113193187D01*
X106060722Y-113240149D01*
X106099500Y-113307314D01*
X106192686Y-113400500D01*
X106306814Y-113466392D01*
X106434108Y-113500500D01*
X106434110Y-113500500D01*
X106565890Y-113500500D01*
X106565892Y-113500500D01*
X106565893Y-113500499D01*
X106573948Y-113499439D01*
X106574197Y-113501334D01*
X106633553Y-113502741D01*
X106691419Y-113541897D01*
X106718930Y-113606123D01*
X106707351Y-113675026D01*
X106683490Y-113708538D01*
X106478848Y-113913181D01*
X106417525Y-113946666D01*
X106391167Y-113949500D01*
X104865544Y-113949500D01*
X104798505Y-113929815D01*
X104752750Y-113877011D01*
X104742806Y-113807853D01*
X104771831Y-113744297D01*
X104777863Y-113737819D01*
X104809196Y-113706485D01*
X104809198Y-113706483D01*
X104860573Y-113601393D01*
X104870500Y-113533260D01*
X104870500Y-113166740D01*
X104860573Y-113098607D01*
X104809198Y-112993517D01*
X104809196Y-112993515D01*
X104809196Y-112993514D01*
X104726485Y-112910803D01*
X104621391Y-112859426D01*
X104553261Y-112849500D01*
X104553260Y-112849500D01*
X104432000Y-112849500D01*
X104364961Y-112829815D01*
X104319206Y-112777011D01*
X104308000Y-112725500D01*
X104308000Y-109619352D01*
X104314959Y-109578397D01*
X104342145Y-109500701D01*
X104342146Y-109500699D01*
X104345000Y-109470269D01*
X104345000Y-108957882D01*
X105009669Y-108957882D01*
X105009670Y-108957883D01*
X105035059Y-108976329D01*
X105203362Y-109062085D01*
X105382997Y-109120451D01*
X105569553Y-109150000D01*
X105758447Y-109150000D01*
X105945002Y-109120451D01*
X106124637Y-109062085D01*
X106292937Y-108976331D01*
X106318328Y-108957883D01*
X106318328Y-108957882D01*
X105664001Y-108303554D01*
X105664000Y-108303554D01*
X105009669Y-108957882D01*
X104345000Y-108957882D01*
X104345000Y-108521042D01*
X104364685Y-108454003D01*
X104417489Y-108408248D01*
X104486647Y-108398304D01*
X104550203Y-108427329D01*
X104579485Y-108464747D01*
X104637666Y-108578933D01*
X104656116Y-108604328D01*
X105314000Y-107946444D01*
X105314000Y-107996078D01*
X105337852Y-108085095D01*
X105383930Y-108164905D01*
X105449095Y-108230070D01*
X105528905Y-108276148D01*
X105617922Y-108300000D01*
X105710078Y-108300000D01*
X105799095Y-108276148D01*
X105878905Y-108230070D01*
X105944070Y-108164905D01*
X105990148Y-108085095D01*
X106014000Y-107996078D01*
X106014000Y-107946446D01*
X106671882Y-108604328D01*
X106671883Y-108604328D01*
X106690331Y-108578937D01*
X106776085Y-108410637D01*
X106834451Y-108231002D01*
X106864000Y-108044447D01*
X106864000Y-107855552D01*
X106834451Y-107668997D01*
X106776084Y-107489360D01*
X106740830Y-107420170D01*
X106727933Y-107351500D01*
X106754209Y-107286760D01*
X106811315Y-107246502D01*
X106851205Y-107239874D01*
X109905128Y-107237247D01*
X109972185Y-107256874D01*
X110017985Y-107309639D01*
X110027988Y-107378788D01*
X110008337Y-107430137D01*
X109945993Y-107523441D01*
X109945983Y-107523459D01*
X109878106Y-107687332D01*
X109878103Y-107687341D01*
X109843500Y-107861304D01*
X109843500Y-108038695D01*
X109878103Y-108212658D01*
X109878106Y-108212667D01*
X109945983Y-108376540D01*
X109945990Y-108376553D01*
X110044535Y-108524034D01*
X110044538Y-108524038D01*
X110169961Y-108649461D01*
X110169965Y-108649464D01*
X110317446Y-108748009D01*
X110317459Y-108748016D01*
X110440166Y-108798842D01*
X110481334Y-108815894D01*
X110481336Y-108815894D01*
X110481341Y-108815896D01*
X110655304Y-108850499D01*
X110655307Y-108850500D01*
X110655309Y-108850500D01*
X110832693Y-108850500D01*
X110832694Y-108850499D01*
X110890682Y-108838964D01*
X111006658Y-108815896D01*
X111006661Y-108815894D01*
X111006666Y-108815894D01*
X111170547Y-108748013D01*
X111318035Y-108649464D01*
X111443464Y-108524035D01*
X111443790Y-108523546D01*
X111444275Y-108522822D01*
X111444863Y-108522330D01*
X111447328Y-108519327D01*
X111447897Y-108519794D01*
X111497886Y-108478016D01*
X111567211Y-108469307D01*
X111630239Y-108499461D01*
X111635059Y-108504030D01*
X112094505Y-108963476D01*
X112127990Y-109024799D01*
X112123866Y-109092110D01*
X112107354Y-109139298D01*
X112107353Y-109139305D01*
X112104500Y-109169730D01*
X112104500Y-109778269D01*
X112107353Y-109808699D01*
X112107353Y-109808701D01*
X112134467Y-109886185D01*
X112152207Y-109936882D01*
X112232850Y-110046150D01*
X112342118Y-110126793D01*
X112384845Y-110141744D01*
X112470299Y-110171646D01*
X112500730Y-110174500D01*
X112500734Y-110174500D01*
X112923500Y-110174500D01*
X112990539Y-110194185D01*
X113036294Y-110246989D01*
X113047500Y-110298500D01*
X113047500Y-111043500D01*
X113027815Y-111110539D01*
X112975011Y-111156294D01*
X112923500Y-111167500D01*
X112293730Y-111167500D01*
X112263300Y-111170353D01*
X112263298Y-111170353D01*
X112135119Y-111215206D01*
X112135117Y-111215207D01*
X112025850Y-111295850D01*
X111945207Y-111405117D01*
X111945206Y-111405119D01*
X111900353Y-111533298D01*
X111900353Y-111533300D01*
X111897500Y-111563730D01*
X111897500Y-112727500D01*
X111877815Y-112794539D01*
X111825011Y-112840294D01*
X111773500Y-112851500D01*
X111470497Y-112851500D01*
X111403458Y-112831815D01*
X111369577Y-112799550D01*
X111366694Y-112795512D01*
X111283985Y-112712803D01*
X111178891Y-112661426D01*
X111110761Y-112651500D01*
X111110760Y-112651500D01*
X109869240Y-112651500D01*
X109869239Y-112651500D01*
X109801108Y-112661426D01*
X109696014Y-112712803D01*
X109613303Y-112795514D01*
X109561926Y-112900608D01*
X109552000Y-112968739D01*
X109552000Y-113335260D01*
X109561926Y-113403391D01*
X109613303Y-113508485D01*
X109696014Y-113591196D01*
X109696015Y-113591196D01*
X109696017Y-113591198D01*
X109801107Y-113642573D01*
X109860737Y-113651261D01*
X109924237Y-113680405D01*
X109961901Y-113739254D01*
X109961769Y-113809123D01*
X109930540Y-113861646D01*
X109849500Y-113942686D01*
X109783608Y-114056812D01*
X109765073Y-114125988D01*
X109749500Y-114184108D01*
X109749500Y-114315892D01*
X109766554Y-114379539D01*
X109783608Y-114443187D01*
X109810902Y-114490460D01*
X109849500Y-114557314D01*
X109942686Y-114650500D01*
X110056814Y-114716392D01*
X110184108Y-114750500D01*
X110184110Y-114750500D01*
X110315890Y-114750500D01*
X110315892Y-114750500D01*
X110443186Y-114716392D01*
X110557314Y-114650500D01*
X110650500Y-114557314D01*
X110716392Y-114443186D01*
X110750500Y-114315892D01*
X110750500Y-114193025D01*
X110767114Y-114131023D01*
X110770021Y-114125989D01*
X110790500Y-114049562D01*
X110790500Y-113776500D01*
X110810185Y-113709461D01*
X110862989Y-113663706D01*
X110914500Y-113652500D01*
X111110761Y-113652500D01*
X111133471Y-113649191D01*
X111178893Y-113642573D01*
X111283983Y-113591198D01*
X111366698Y-113508483D01*
X111366700Y-113508477D01*
X111369577Y-113504450D01*
X111424551Y-113461326D01*
X111470497Y-113452500D01*
X112503560Y-113452500D01*
X112503562Y-113452500D01*
X112579989Y-113432021D01*
X112612063Y-113413503D01*
X112655550Y-113388397D01*
X112656572Y-113390168D01*
X112711515Y-113368930D01*
X112721829Y-113368500D01*
X114402270Y-113368500D01*
X114432699Y-113365646D01*
X114432701Y-113365646D01*
X114514293Y-113337095D01*
X114560882Y-113320793D01*
X114670150Y-113240150D01*
X114750793Y-113130882D01*
X114787388Y-113026299D01*
X114795646Y-113002701D01*
X114795646Y-113002699D01*
X114798500Y-112972269D01*
X114798500Y-111563730D01*
X114795646Y-111533300D01*
X114795646Y-111533298D01*
X114761340Y-111435260D01*
X114750793Y-111405118D01*
X114670150Y-111295850D01*
X114560882Y-111215207D01*
X114560880Y-111215206D01*
X114432700Y-111170353D01*
X114402270Y-111167500D01*
X114402266Y-111167500D01*
X113772500Y-111167500D01*
X113705461Y-111147815D01*
X113659706Y-111095011D01*
X113648500Y-111043500D01*
X113648500Y-110238179D01*
X113668185Y-110171140D01*
X113710428Y-110132344D01*
X113710404Y-110132312D01*
X113710710Y-110132085D01*
X113714566Y-110128545D01*
X113717879Y-110126793D01*
X113717882Y-110126793D01*
X113827150Y-110046150D01*
X113907793Y-109936882D01*
X113933419Y-109863646D01*
X113952646Y-109808701D01*
X113952646Y-109808699D01*
X113955500Y-109778269D01*
X113955500Y-109169730D01*
X113952646Y-109139300D01*
X113952646Y-109139298D01*
X113912580Y-109024799D01*
X113907793Y-109011118D01*
X113827150Y-108901850D01*
X113717882Y-108821207D01*
X113717880Y-108821206D01*
X113653967Y-108798842D01*
X113597191Y-108758120D01*
X113571444Y-108693168D01*
X113584901Y-108624606D01*
X113633288Y-108574203D01*
X113655918Y-108564095D01*
X113824119Y-108508358D01*
X113824124Y-108508356D01*
X113973345Y-108416315D01*
X114097315Y-108292345D01*
X114189356Y-108143124D01*
X114189358Y-108143119D01*
X114244505Y-107976697D01*
X114244506Y-107976690D01*
X114254999Y-107873986D01*
X114255000Y-107873973D01*
X114255000Y-107824000D01*
X111856333Y-107824000D01*
X111831070Y-107816582D01*
X111804997Y-107812875D01*
X111795113Y-107806023D01*
X111789294Y-107804315D01*
X111775276Y-107793839D01*
X111771855Y-107790884D01*
X111690511Y-107709540D01*
X111661996Y-107693077D01*
X111633095Y-107676391D01*
X111584881Y-107625826D01*
X111580546Y-107616481D01*
X111542013Y-107523453D01*
X111478698Y-107428696D01*
X111475676Y-107419047D01*
X111469050Y-107411413D01*
X111465412Y-107386266D01*
X111457820Y-107362019D01*
X111460494Y-107352269D01*
X111459047Y-107342263D01*
X111469582Y-107319142D01*
X111476304Y-107294639D01*
X111483826Y-107287881D01*
X111488018Y-107278683D01*
X111509378Y-107264929D01*
X111528283Y-107247948D01*
X111539828Y-107245323D01*
X111546763Y-107240858D01*
X111581690Y-107235805D01*
X111680894Y-107235720D01*
X111747950Y-107255347D01*
X111793750Y-107308112D01*
X111795042Y-107314042D01*
X111805000Y-107324000D01*
X114254999Y-107324000D01*
X114268882Y-107310116D01*
X114274684Y-107290359D01*
X114327488Y-107244604D01*
X114378884Y-107233399D01*
X117743858Y-107230505D01*
X117756110Y-107231101D01*
G37*
%TD.AperFunction*%
%TD*%
M02*
