%TF.GenerationSoftware,KiCad,Pcbnew,9.0.3*%
%TF.CreationDate,2025-10-13T14:24:37+01:00*%
%TF.ProjectId,Charging circuit,43686172-6769-46e6-9720-636972637569,rev?*%
%TF.SameCoordinates,Original*%
%TF.FileFunction,Copper,L2,Bot*%
%TF.FilePolarity,Positive*%
%FSLAX46Y46*%
G04 Gerber Fmt 4.6, Leading zero omitted, Abs format (unit mm)*
G04 Created by KiCad (PCBNEW 9.0.3) date 2025-10-13 14:24:37*
%MOMM*%
%LPD*%
G01*
G04 APERTURE LIST*
G04 Aperture macros list*
%AMRoundRect*
0 Rectangle with rounded corners*
0 $1 Rounding radius*
0 $2 $3 $4 $5 $6 $7 $8 $9 X,Y pos of 4 corners*
0 Add a 4 corners polygon primitive as box body*
4,1,4,$2,$3,$4,$5,$6,$7,$8,$9,$2,$3,0*
0 Add four circle primitives for the rounded corners*
1,1,$1+$1,$2,$3*
1,1,$1+$1,$4,$5*
1,1,$1+$1,$6,$7*
1,1,$1+$1,$8,$9*
0 Add four rect primitives between the rounded corners*
20,1,$1+$1,$2,$3,$4,$5,0*
20,1,$1+$1,$4,$5,$6,$7,0*
20,1,$1+$1,$6,$7,$8,$9,0*
20,1,$1+$1,$8,$9,$2,$3,0*%
G04 Aperture macros list end*
%TA.AperFunction,ComponentPad*%
%ADD10R,1.800000X1.800000*%
%TD*%
%TA.AperFunction,ComponentPad*%
%ADD11C,1.800000*%
%TD*%
%TA.AperFunction,ComponentPad*%
%ADD12C,1.400000*%
%TD*%
%TA.AperFunction,ComponentPad*%
%ADD13RoundRect,0.250000X-0.625000X0.350000X-0.625000X-0.350000X0.625000X-0.350000X0.625000X0.350000X0*%
%TD*%
%TA.AperFunction,ComponentPad*%
%ADD14O,1.750000X1.200000*%
%TD*%
%TA.AperFunction,ComponentPad*%
%ADD15RoundRect,0.250000X0.625000X-0.350000X0.625000X0.350000X-0.625000X0.350000X-0.625000X-0.350000X0*%
%TD*%
%TA.AperFunction,ViaPad*%
%ADD16C,0.600000*%
%TD*%
%TA.AperFunction,Conductor*%
%ADD17C,0.200000*%
%TD*%
G04 APERTURE END LIST*
D10*
%TO.P,D4,1,K*%
%TO.N,Net-(D4-K)*%
X96266000Y-110744000D03*
D11*
%TO.P,D4,2,A*%
%TO.N,+5V*%
X96266000Y-113284000D03*
%TD*%
D12*
%TO.P,R5,1*%
%TO.N,Net-(D3-A)*%
X110744000Y-107950000D03*
%TO.P,R5,2*%
%TO.N,GND*%
X105664000Y-107950000D03*
%TD*%
D13*
%TO.P,J1,1,Pin_1*%
%TO.N,LOAD*%
X116586000Y-116618000D03*
D14*
%TO.P,J1,2,Pin_2*%
%TO.N,GND*%
X116586000Y-118618000D03*
%TD*%
D12*
%TO.P,R4,1*%
%TO.N,Net-(D3-A)*%
X106426000Y-110998000D03*
%TO.P,R4,2*%
%TO.N,+5V*%
X106426000Y-116078000D03*
%TD*%
D15*
%TO.P,J2,1,Pin_1*%
%TO.N,VBAT*%
X95504000Y-119094000D03*
D14*
%TO.P,J2,2,Pin_2*%
%TO.N,GND*%
X95504000Y-117094000D03*
%TD*%
D16*
%TO.N,Net-(D3-A)*%
X110250000Y-114250000D03*
X106500000Y-113000000D03*
%TO.N,VBAT*%
X100250000Y-115250000D03*
X102250000Y-118250000D03*
%TO.N,LOAD*%
X111000000Y-109750000D03*
X116250000Y-109750000D03*
%TD*%
D17*
%TO.N,Net-(D3-A)*%
X107750000Y-114250000D02*
X106500000Y-113000000D01*
X110250000Y-114250000D02*
X107750000Y-114250000D01*
%TO.N,VBAT*%
X100250000Y-116250000D02*
X102250000Y-118250000D01*
X100250000Y-115250000D02*
X100250000Y-116250000D01*
%TO.N,LOAD*%
X116250000Y-109750000D02*
X111000000Y-109750000D01*
%TD*%
%TA.AperFunction,Conductor*%
%TO.N,GND*%
G36*
X117756109Y-107231101D02*
G01*
X117887973Y-107244089D01*
X117911801Y-107248828D01*
X118032793Y-107285531D01*
X118055245Y-107294832D01*
X118072409Y-107304006D01*
X118166738Y-107354426D01*
X118186949Y-107367930D01*
X118284677Y-107448132D01*
X118301867Y-107465322D01*
X118382069Y-107563050D01*
X118395573Y-107583261D01*
X118455166Y-107694751D01*
X118464469Y-107717209D01*
X118501169Y-107838192D01*
X118505911Y-107862033D01*
X118518896Y-107993877D01*
X118519493Y-108006152D01*
X118507898Y-119891646D01*
X118499564Y-128433867D01*
X118499500Y-128434108D01*
X118499500Y-128497128D01*
X118499500Y-128497253D01*
X118499496Y-128497263D01*
X118499368Y-128502855D01*
X118482703Y-128863303D01*
X118481646Y-128874707D01*
X118432192Y-129229231D01*
X118430087Y-129240490D01*
X118348135Y-129588931D01*
X118345001Y-129599947D01*
X118231243Y-129939355D01*
X118227105Y-129950035D01*
X118082523Y-130277482D01*
X118077418Y-130287735D01*
X117903234Y-130600452D01*
X117897205Y-130610190D01*
X117694906Y-130905512D01*
X117688003Y-130914652D01*
X117459328Y-131190035D01*
X117451612Y-131198499D01*
X117198499Y-131451612D01*
X117190035Y-131459328D01*
X116914652Y-131688003D01*
X116905512Y-131694906D01*
X116610190Y-131897205D01*
X116600452Y-131903234D01*
X116287735Y-132077418D01*
X116277482Y-132082523D01*
X115950035Y-132227105D01*
X115939355Y-132231243D01*
X115599947Y-132345001D01*
X115588931Y-132348135D01*
X115240490Y-132430087D01*
X115229231Y-132432192D01*
X114874707Y-132481646D01*
X114863303Y-132482703D01*
X114502855Y-132499368D01*
X114497128Y-132499500D01*
X97752872Y-132499500D01*
X97747145Y-132499368D01*
X97386696Y-132482703D01*
X97375292Y-132481646D01*
X97020768Y-132432192D01*
X97009509Y-132430087D01*
X96661068Y-132348135D01*
X96650052Y-132345001D01*
X96310644Y-132231243D01*
X96299964Y-132227105D01*
X95972517Y-132082523D01*
X95962264Y-132077418D01*
X95649547Y-131903234D01*
X95639809Y-131897205D01*
X95344487Y-131694906D01*
X95335347Y-131688003D01*
X95059964Y-131459328D01*
X95051500Y-131451612D01*
X94798387Y-131198499D01*
X94790671Y-131190035D01*
X94561994Y-130914649D01*
X94555093Y-130905512D01*
X94352794Y-130610190D01*
X94346765Y-130600452D01*
X94257283Y-130439803D01*
X94172579Y-130287731D01*
X94167476Y-130277482D01*
X94022889Y-129950022D01*
X94018761Y-129939368D01*
X93904994Y-129599934D01*
X93901867Y-129588944D01*
X93819910Y-129240482D01*
X93817807Y-129229231D01*
X93768353Y-128874707D01*
X93767296Y-128863303D01*
X93756203Y-128623367D01*
X93750632Y-128502855D01*
X93750500Y-128497128D01*
X93750500Y-128194234D01*
X101848500Y-128194234D01*
X101848500Y-128345765D01*
X101887719Y-128492136D01*
X101893908Y-128502855D01*
X101963485Y-128623365D01*
X102070635Y-128730515D01*
X102201865Y-128806281D01*
X102348234Y-128845500D01*
X102348236Y-128845500D01*
X102499764Y-128845500D01*
X102499766Y-128845500D01*
X102646135Y-128806281D01*
X102777365Y-128730515D01*
X102884515Y-128623365D01*
X102960281Y-128492135D01*
X102999500Y-128345766D01*
X102999500Y-128194234D01*
X107628500Y-128194234D01*
X107628500Y-128345765D01*
X107667719Y-128492136D01*
X107673908Y-128502855D01*
X107743485Y-128623365D01*
X107850635Y-128730515D01*
X107981865Y-128806281D01*
X108128234Y-128845500D01*
X108128236Y-128845500D01*
X108279764Y-128845500D01*
X108279766Y-128845500D01*
X108426135Y-128806281D01*
X108557365Y-128730515D01*
X108664515Y-128623365D01*
X108740281Y-128492135D01*
X108779500Y-128345766D01*
X108779500Y-128194234D01*
X108740281Y-128047865D01*
X108664515Y-127916635D01*
X108557365Y-127809485D01*
X108491750Y-127771602D01*
X108426136Y-127733719D01*
X108352950Y-127714109D01*
X108279766Y-127694500D01*
X108128234Y-127694500D01*
X107981863Y-127733719D01*
X107850635Y-127809485D01*
X107850632Y-127809487D01*
X107743487Y-127916632D01*
X107743485Y-127916635D01*
X107667719Y-128047863D01*
X107628500Y-128194234D01*
X102999500Y-128194234D01*
X102960281Y-128047865D01*
X102884515Y-127916635D01*
X102777365Y-127809485D01*
X102711750Y-127771602D01*
X102646136Y-127733719D01*
X102572950Y-127714109D01*
X102499766Y-127694500D01*
X102348234Y-127694500D01*
X102201863Y-127733719D01*
X102070635Y-127809485D01*
X102070632Y-127809487D01*
X101963487Y-127916632D01*
X101963485Y-127916635D01*
X101887719Y-128047863D01*
X101848500Y-128194234D01*
X93750500Y-128194234D01*
X93750500Y-116843999D01*
X94154884Y-116843999D01*
X94154885Y-116844000D01*
X95223670Y-116844000D01*
X95203925Y-116863745D01*
X95154556Y-116949255D01*
X95129000Y-117044630D01*
X95129000Y-117143370D01*
X95154556Y-117238745D01*
X95203925Y-117324255D01*
X95223670Y-117344000D01*
X94154885Y-117344000D01*
X94156085Y-117351584D01*
X94209591Y-117516255D01*
X94288195Y-117670524D01*
X94389967Y-117810602D01*
X94512397Y-117933032D01*
X94652475Y-118034804D01*
X94756051Y-118087579D01*
X94806847Y-118135554D01*
X94823642Y-118203375D01*
X94801104Y-118269510D01*
X94746389Y-118312961D01*
X94740712Y-118315105D01*
X94666117Y-118341207D01*
X94556850Y-118421850D01*
X94476207Y-118531117D01*
X94476206Y-118531119D01*
X94431353Y-118659298D01*
X94431353Y-118659300D01*
X94428500Y-118689730D01*
X94428500Y-119498269D01*
X94431353Y-119528699D01*
X94431353Y-119528701D01*
X94476206Y-119656880D01*
X94476207Y-119656882D01*
X94556850Y-119766150D01*
X94666118Y-119846793D01*
X94708845Y-119861744D01*
X94794299Y-119891646D01*
X94824730Y-119894500D01*
X94824734Y-119894500D01*
X96183270Y-119894500D01*
X96213699Y-119891646D01*
X96213701Y-119891646D01*
X96277790Y-119869219D01*
X96341882Y-119846793D01*
X96451150Y-119766150D01*
X96531793Y-119656882D01*
X96566112Y-119558804D01*
X96576646Y-119528701D01*
X96576646Y-119528699D01*
X96579500Y-119498269D01*
X96579500Y-118689730D01*
X96576646Y-118659300D01*
X96576646Y-118659298D01*
X96531793Y-118531119D01*
X96531792Y-118531117D01*
X96489088Y-118473255D01*
X96451150Y-118421850D01*
X96341882Y-118341207D01*
X96341880Y-118341206D01*
X96267288Y-118315105D01*
X96210512Y-118274383D01*
X96184765Y-118209430D01*
X96198222Y-118140869D01*
X96246609Y-118090466D01*
X96251948Y-118087579D01*
X96355524Y-118034804D01*
X96495602Y-117933032D01*
X96618032Y-117810602D01*
X96719804Y-117670524D01*
X96798408Y-117516255D01*
X96851914Y-117351584D01*
X96853115Y-117344000D01*
X95784330Y-117344000D01*
X95804075Y-117324255D01*
X95853444Y-117238745D01*
X95879000Y-117143370D01*
X95879000Y-117044630D01*
X95853444Y-116949255D01*
X95804075Y-116863745D01*
X95784330Y-116844000D01*
X96853115Y-116844000D01*
X96853115Y-116843999D01*
X96851914Y-116836415D01*
X96798408Y-116671744D01*
X96719804Y-116517475D01*
X96618032Y-116377397D01*
X96495602Y-116254967D01*
X96355524Y-116153195D01*
X96201257Y-116074591D01*
X96036584Y-116021085D01*
X95865571Y-115994000D01*
X95754000Y-115994000D01*
X95754000Y-116813670D01*
X95734255Y-116793925D01*
X95648745Y-116744556D01*
X95553370Y-116719000D01*
X95454630Y-116719000D01*
X95359255Y-116744556D01*
X95273745Y-116793925D01*
X95254000Y-116813670D01*
X95254000Y-115994000D01*
X95142429Y-115994000D01*
X94971415Y-116021085D01*
X94806742Y-116074591D01*
X94652475Y-116153195D01*
X94512397Y-116254967D01*
X94389967Y-116377397D01*
X94288195Y-116517475D01*
X94209591Y-116671744D01*
X94156085Y-116836415D01*
X94154884Y-116843999D01*
X93750500Y-116843999D01*
X93750500Y-115184108D01*
X99749500Y-115184108D01*
X99749500Y-115315891D01*
X99783608Y-115443187D01*
X99816554Y-115500250D01*
X99849500Y-115557314D01*
X99849502Y-115557316D01*
X99913181Y-115620995D01*
X99946666Y-115682318D01*
X99949500Y-115708676D01*
X99949500Y-116289562D01*
X99963152Y-116340513D01*
X99969979Y-116365990D01*
X99969982Y-116365995D01*
X100009535Y-116434504D01*
X100009541Y-116434512D01*
X101713181Y-118138152D01*
X101746666Y-118199475D01*
X101749500Y-118225833D01*
X101749500Y-118315891D01*
X101783608Y-118443187D01*
X101800968Y-118473255D01*
X101849500Y-118557314D01*
X101942686Y-118650500D01*
X102041521Y-118707563D01*
X102056810Y-118716390D01*
X102056814Y-118716392D01*
X102184108Y-118750500D01*
X102184110Y-118750500D01*
X102315890Y-118750500D01*
X102315892Y-118750500D01*
X102443186Y-118716392D01*
X102557314Y-118650500D01*
X102650500Y-118557314D01*
X102716392Y-118443186D01*
X102736538Y-118367999D01*
X115236884Y-118367999D01*
X115236885Y-118368000D01*
X116305670Y-118368000D01*
X116285925Y-118387745D01*
X116236556Y-118473255D01*
X116211000Y-118568630D01*
X116211000Y-118667370D01*
X116236556Y-118762745D01*
X116285925Y-118848255D01*
X116305670Y-118868000D01*
X115236885Y-118868000D01*
X115238085Y-118875584D01*
X115291591Y-119040255D01*
X115370195Y-119194524D01*
X115471967Y-119334602D01*
X115594397Y-119457032D01*
X115734475Y-119558804D01*
X115888742Y-119637408D01*
X116053415Y-119690914D01*
X116224429Y-119718000D01*
X116336000Y-119718000D01*
X116336000Y-118898330D01*
X116355745Y-118918075D01*
X116441255Y-118967444D01*
X116536630Y-118993000D01*
X116635370Y-118993000D01*
X116730745Y-118967444D01*
X116816255Y-118918075D01*
X116836000Y-118898330D01*
X116836000Y-119718000D01*
X116947571Y-119718000D01*
X117118584Y-119690914D01*
X117283257Y-119637408D01*
X117437524Y-119558804D01*
X117577602Y-119457032D01*
X117700032Y-119334602D01*
X117801804Y-119194524D01*
X117880408Y-119040255D01*
X117933914Y-118875584D01*
X117935115Y-118868000D01*
X116866330Y-118868000D01*
X116886075Y-118848255D01*
X116935444Y-118762745D01*
X116961000Y-118667370D01*
X116961000Y-118568630D01*
X116935444Y-118473255D01*
X116886075Y-118387745D01*
X116866330Y-118368000D01*
X117935115Y-118368000D01*
X117935115Y-118367999D01*
X117933914Y-118360415D01*
X117880408Y-118195744D01*
X117801804Y-118041475D01*
X117700032Y-117901397D01*
X117577602Y-117778967D01*
X117437521Y-117677194D01*
X117333947Y-117624419D01*
X117283152Y-117576445D01*
X117266357Y-117508624D01*
X117288895Y-117442489D01*
X117343610Y-117399038D01*
X117349248Y-117396908D01*
X117423882Y-117370793D01*
X117533150Y-117290150D01*
X117613793Y-117180882D01*
X117636219Y-117116790D01*
X117658646Y-117052701D01*
X117658646Y-117052699D01*
X117661500Y-117022269D01*
X117661500Y-116213730D01*
X117658646Y-116183300D01*
X117658646Y-116183298D01*
X117620607Y-116074591D01*
X117613793Y-116055118D01*
X117533150Y-115945850D01*
X117423882Y-115865207D01*
X117423880Y-115865206D01*
X117295700Y-115820353D01*
X117265270Y-115817500D01*
X117265266Y-115817500D01*
X115906734Y-115817500D01*
X115906730Y-115817500D01*
X115876300Y-115820353D01*
X115876298Y-115820353D01*
X115748119Y-115865206D01*
X115748117Y-115865207D01*
X115638850Y-115945850D01*
X115558207Y-116055117D01*
X115558206Y-116055119D01*
X115513353Y-116183298D01*
X115513353Y-116183300D01*
X115510500Y-116213730D01*
X115510500Y-117022269D01*
X115513353Y-117052699D01*
X115513353Y-117052701D01*
X115558206Y-117180880D01*
X115558207Y-117180882D01*
X115638850Y-117290150D01*
X115748118Y-117370793D01*
X115822714Y-117396895D01*
X115879487Y-117437615D01*
X115905234Y-117502568D01*
X115891778Y-117571130D01*
X115843390Y-117621532D01*
X115838052Y-117624419D01*
X115734478Y-117677194D01*
X115594397Y-117778967D01*
X115471967Y-117901397D01*
X115370195Y-118041475D01*
X115291591Y-118195744D01*
X115238085Y-118360415D01*
X115236884Y-118367999D01*
X102736538Y-118367999D01*
X102750500Y-118315892D01*
X102750500Y-118184108D01*
X102716392Y-118056814D01*
X102650500Y-117942686D01*
X102557314Y-117849500D01*
X102489941Y-117810602D01*
X102443187Y-117783608D01*
X102379539Y-117766554D01*
X102315892Y-117749500D01*
X102225833Y-117749500D01*
X102158794Y-117729815D01*
X102138152Y-117713181D01*
X100586819Y-116161848D01*
X100572115Y-116134920D01*
X100555523Y-116109102D01*
X100554631Y-116102901D01*
X100553334Y-116100525D01*
X100550500Y-116074167D01*
X100550500Y-115989304D01*
X105525500Y-115989304D01*
X105525500Y-116166695D01*
X105560103Y-116340658D01*
X105560106Y-116340667D01*
X105627983Y-116504540D01*
X105627990Y-116504553D01*
X105726535Y-116652034D01*
X105726538Y-116652038D01*
X105851961Y-116777461D01*
X105851965Y-116777464D01*
X105999446Y-116876009D01*
X105999459Y-116876016D01*
X106122363Y-116926923D01*
X106163334Y-116943894D01*
X106163336Y-116943894D01*
X106163341Y-116943896D01*
X106337304Y-116978499D01*
X106337307Y-116978500D01*
X106337309Y-116978500D01*
X106514693Y-116978500D01*
X106514694Y-116978499D01*
X106572682Y-116966964D01*
X106688658Y-116943896D01*
X106688661Y-116943894D01*
X106688666Y-116943894D01*
X106852547Y-116876013D01*
X107000035Y-116777464D01*
X107125464Y-116652035D01*
X107224013Y-116504547D01*
X107291894Y-116340666D01*
X107302060Y-116289562D01*
X107314964Y-116224682D01*
X107326500Y-116166691D01*
X107326500Y-115989309D01*
X107326500Y-115989306D01*
X107326499Y-115989304D01*
X107291896Y-115815341D01*
X107291893Y-115815332D01*
X107224016Y-115651459D01*
X107224009Y-115651446D01*
X107125464Y-115503965D01*
X107125461Y-115503961D01*
X107000038Y-115378538D01*
X107000034Y-115378535D01*
X106852553Y-115279990D01*
X106852540Y-115279983D01*
X106688667Y-115212106D01*
X106688658Y-115212103D01*
X106514694Y-115177500D01*
X106514691Y-115177500D01*
X106337309Y-115177500D01*
X106337306Y-115177500D01*
X106163341Y-115212103D01*
X106163332Y-115212106D01*
X105999459Y-115279983D01*
X105999446Y-115279990D01*
X105851965Y-115378535D01*
X105851961Y-115378538D01*
X105726538Y-115503961D01*
X105726535Y-115503965D01*
X105627990Y-115651446D01*
X105627983Y-115651459D01*
X105560106Y-115815332D01*
X105560103Y-115815341D01*
X105525500Y-115989304D01*
X100550500Y-115989304D01*
X100550500Y-115708676D01*
X100570185Y-115641637D01*
X100586819Y-115620995D01*
X100650500Y-115557314D01*
X100716392Y-115443186D01*
X100750500Y-115315892D01*
X100750500Y-115184108D01*
X100716392Y-115056814D01*
X100650500Y-114942686D01*
X100557314Y-114849500D01*
X100500250Y-114816554D01*
X100443187Y-114783608D01*
X100379539Y-114766554D01*
X100315892Y-114749500D01*
X100184108Y-114749500D01*
X100056812Y-114783608D01*
X99942686Y-114849500D01*
X99942683Y-114849502D01*
X99849502Y-114942683D01*
X99849500Y-114942686D01*
X99783608Y-115056812D01*
X99749500Y-115184108D01*
X93750500Y-115184108D01*
X93750500Y-113197389D01*
X95165500Y-113197389D01*
X95165500Y-113370611D01*
X95170234Y-113400499D01*
X95191824Y-113536819D01*
X95192598Y-113541701D01*
X95246127Y-113706445D01*
X95324768Y-113860788D01*
X95426586Y-114000928D01*
X95549072Y-114123414D01*
X95689212Y-114225232D01*
X95843555Y-114303873D01*
X96008299Y-114357402D01*
X96179389Y-114384500D01*
X96179390Y-114384500D01*
X96352610Y-114384500D01*
X96352611Y-114384500D01*
X96523701Y-114357402D01*
X96688445Y-114303873D01*
X96842788Y-114225232D01*
X96982928Y-114123414D01*
X97105414Y-114000928D01*
X97207232Y-113860788D01*
X97285873Y-113706445D01*
X97339402Y-113541701D01*
X97366500Y-113370611D01*
X97366500Y-113197389D01*
X97339402Y-113026299D01*
X97309447Y-112934108D01*
X105999500Y-112934108D01*
X105999500Y-113065892D01*
X106011814Y-113111848D01*
X106033608Y-113193187D01*
X106066554Y-113250250D01*
X106099500Y-113307314D01*
X106192686Y-113400500D01*
X106306814Y-113466392D01*
X106434108Y-113500500D01*
X106434110Y-113500500D01*
X106524167Y-113500500D01*
X106591206Y-113520185D01*
X106611848Y-113536819D01*
X107509540Y-114434511D01*
X107565489Y-114490460D01*
X107565491Y-114490461D01*
X107565495Y-114490464D01*
X107634004Y-114530017D01*
X107634011Y-114530021D01*
X107710438Y-114550500D01*
X109791324Y-114550500D01*
X109858363Y-114570185D01*
X109879005Y-114586819D01*
X109942686Y-114650500D01*
X110056814Y-114716392D01*
X110184108Y-114750500D01*
X110184110Y-114750500D01*
X110315890Y-114750500D01*
X110315892Y-114750500D01*
X110443186Y-114716392D01*
X110557314Y-114650500D01*
X110650500Y-114557314D01*
X110716392Y-114443186D01*
X110750500Y-114315892D01*
X110750500Y-114184108D01*
X110716392Y-114056814D01*
X110650500Y-113942686D01*
X110557314Y-113849500D01*
X110500250Y-113816554D01*
X110443187Y-113783608D01*
X110379539Y-113766554D01*
X110315892Y-113749500D01*
X110184108Y-113749500D01*
X110056812Y-113783608D01*
X109942686Y-113849500D01*
X109942683Y-113849502D01*
X109879005Y-113913181D01*
X109817682Y-113946666D01*
X109791324Y-113949500D01*
X107925833Y-113949500D01*
X107858794Y-113929815D01*
X107838152Y-113913181D01*
X107036819Y-113111848D01*
X107003334Y-113050525D01*
X107000500Y-113024167D01*
X107000500Y-112934110D01*
X107000500Y-112934108D01*
X106966392Y-112806814D01*
X106900500Y-112692686D01*
X106807314Y-112599500D01*
X106750250Y-112566554D01*
X106693187Y-112533608D01*
X106629539Y-112516554D01*
X106565892Y-112499500D01*
X106434108Y-112499500D01*
X106306812Y-112533608D01*
X106192686Y-112599500D01*
X106192683Y-112599502D01*
X106099502Y-112692683D01*
X106099500Y-112692686D01*
X106033608Y-112806812D01*
X106018941Y-112861552D01*
X105999500Y-112934108D01*
X97309447Y-112934108D01*
X97285873Y-112861555D01*
X97207232Y-112707212D01*
X97105414Y-112567072D01*
X96982928Y-112444586D01*
X96842788Y-112342768D01*
X96688445Y-112264127D01*
X96523701Y-112210598D01*
X96523699Y-112210597D01*
X96523698Y-112210597D01*
X96392271Y-112189781D01*
X96352611Y-112183500D01*
X96179389Y-112183500D01*
X96139728Y-112189781D01*
X96008302Y-112210597D01*
X95843552Y-112264128D01*
X95689211Y-112342768D01*
X95609256Y-112400859D01*
X95549072Y-112444586D01*
X95549070Y-112444588D01*
X95549069Y-112444588D01*
X95426588Y-112567069D01*
X95426588Y-112567070D01*
X95426586Y-112567072D01*
X95403026Y-112599500D01*
X95324768Y-112707211D01*
X95246128Y-112861552D01*
X95192597Y-113026302D01*
X95192597Y-113026304D01*
X95165500Y-113197389D01*
X93750500Y-113197389D01*
X93750500Y-109824247D01*
X95165500Y-109824247D01*
X95165500Y-111663752D01*
X95177131Y-111722229D01*
X95177132Y-111722230D01*
X95221447Y-111788552D01*
X95287769Y-111832867D01*
X95287770Y-111832868D01*
X95346247Y-111844499D01*
X95346250Y-111844500D01*
X95346252Y-111844500D01*
X97185750Y-111844500D01*
X97185751Y-111844499D01*
X97200568Y-111841552D01*
X97244229Y-111832868D01*
X97244229Y-111832867D01*
X97244231Y-111832867D01*
X97310552Y-111788552D01*
X97354867Y-111722231D01*
X97354867Y-111722229D01*
X97354868Y-111722229D01*
X97366499Y-111663752D01*
X97366500Y-111663750D01*
X97366500Y-110909304D01*
X105525500Y-110909304D01*
X105525500Y-111086695D01*
X105560103Y-111260658D01*
X105560106Y-111260667D01*
X105627983Y-111424540D01*
X105627990Y-111424553D01*
X105726535Y-111572034D01*
X105726538Y-111572038D01*
X105851961Y-111697461D01*
X105851965Y-111697464D01*
X105999446Y-111796009D01*
X105999459Y-111796016D01*
X106116510Y-111844499D01*
X106163334Y-111863894D01*
X106163336Y-111863894D01*
X106163341Y-111863896D01*
X106337304Y-111898499D01*
X106337307Y-111898500D01*
X106337309Y-111898500D01*
X106514693Y-111898500D01*
X106514694Y-111898499D01*
X106572682Y-111886964D01*
X106688658Y-111863896D01*
X106688661Y-111863894D01*
X106688666Y-111863894D01*
X106852547Y-111796013D01*
X107000035Y-111697464D01*
X107125464Y-111572035D01*
X107224013Y-111424547D01*
X107291894Y-111260666D01*
X107326500Y-111086691D01*
X107326500Y-110909309D01*
X107326500Y-110909306D01*
X107326499Y-110909304D01*
X107291896Y-110735341D01*
X107291893Y-110735332D01*
X107224016Y-110571459D01*
X107224009Y-110571446D01*
X107125464Y-110423965D01*
X107125461Y-110423961D01*
X107000038Y-110298538D01*
X107000034Y-110298535D01*
X106852553Y-110199990D01*
X106852540Y-110199983D01*
X106688667Y-110132106D01*
X106688658Y-110132103D01*
X106514694Y-110097500D01*
X106514691Y-110097500D01*
X106337309Y-110097500D01*
X106337306Y-110097500D01*
X106163341Y-110132103D01*
X106163332Y-110132106D01*
X105999459Y-110199983D01*
X105999446Y-110199990D01*
X105851965Y-110298535D01*
X105851961Y-110298538D01*
X105726538Y-110423961D01*
X105726535Y-110423965D01*
X105627990Y-110571446D01*
X105627983Y-110571459D01*
X105560106Y-110735332D01*
X105560103Y-110735341D01*
X105525500Y-110909304D01*
X97366500Y-110909304D01*
X97366500Y-109824249D01*
X97366499Y-109824247D01*
X97354868Y-109765771D01*
X97354867Y-109765769D01*
X97334617Y-109735464D01*
X97310552Y-109699447D01*
X97287596Y-109684108D01*
X110499500Y-109684108D01*
X110499500Y-109815891D01*
X110533608Y-109943187D01*
X110566554Y-110000250D01*
X110599500Y-110057314D01*
X110692686Y-110150500D01*
X110806814Y-110216392D01*
X110934108Y-110250500D01*
X110934110Y-110250500D01*
X111065890Y-110250500D01*
X111065892Y-110250500D01*
X111193186Y-110216392D01*
X111307314Y-110150500D01*
X111370995Y-110086819D01*
X111432318Y-110053334D01*
X111458676Y-110050500D01*
X115791324Y-110050500D01*
X115858363Y-110070185D01*
X115879005Y-110086819D01*
X115942686Y-110150500D01*
X116056814Y-110216392D01*
X116184108Y-110250500D01*
X116184110Y-110250500D01*
X116315890Y-110250500D01*
X116315892Y-110250500D01*
X116443186Y-110216392D01*
X116557314Y-110150500D01*
X116650500Y-110057314D01*
X116716392Y-109943186D01*
X116750500Y-109815892D01*
X116750500Y-109684108D01*
X116716392Y-109556814D01*
X116650500Y-109442686D01*
X116557314Y-109349500D01*
X116500250Y-109316554D01*
X116443187Y-109283608D01*
X116379539Y-109266554D01*
X116315892Y-109249500D01*
X116184108Y-109249500D01*
X116056812Y-109283608D01*
X115942686Y-109349500D01*
X115942683Y-109349502D01*
X115879005Y-109413181D01*
X115817682Y-109446666D01*
X115791324Y-109449500D01*
X111458676Y-109449500D01*
X111391637Y-109429815D01*
X111370995Y-109413181D01*
X111307316Y-109349502D01*
X111307314Y-109349500D01*
X111250250Y-109316554D01*
X111193187Y-109283608D01*
X111129539Y-109266554D01*
X111065892Y-109249500D01*
X110934108Y-109249500D01*
X110806812Y-109283608D01*
X110692686Y-109349500D01*
X110692683Y-109349502D01*
X110599502Y-109442683D01*
X110599500Y-109442686D01*
X110533608Y-109556812D01*
X110499500Y-109684108D01*
X97287596Y-109684108D01*
X97244230Y-109655132D01*
X97244229Y-109655131D01*
X97185752Y-109643500D01*
X97185748Y-109643500D01*
X95346252Y-109643500D01*
X95346247Y-109643500D01*
X95287770Y-109655131D01*
X95287769Y-109655132D01*
X95221447Y-109699447D01*
X95177132Y-109765769D01*
X95177131Y-109765770D01*
X95165500Y-109824247D01*
X93750500Y-109824247D01*
X93750500Y-108957882D01*
X105009669Y-108957882D01*
X105009670Y-108957883D01*
X105035059Y-108976329D01*
X105203362Y-109062085D01*
X105382997Y-109120451D01*
X105569553Y-109150000D01*
X105758447Y-109150000D01*
X105945002Y-109120451D01*
X106124637Y-109062085D01*
X106292937Y-108976331D01*
X106318328Y-108957883D01*
X106318328Y-108957882D01*
X105664001Y-108303554D01*
X105664000Y-108303554D01*
X105009669Y-108957882D01*
X93750500Y-108957882D01*
X93750500Y-108006092D01*
X93751097Y-107993939D01*
X93755424Y-107950000D01*
X93763704Y-107865928D01*
X93768442Y-107842104D01*
X93804010Y-107724855D01*
X93813306Y-107702413D01*
X93871061Y-107594363D01*
X93884556Y-107574165D01*
X93962279Y-107479458D01*
X93979458Y-107462279D01*
X94074165Y-107384556D01*
X94094363Y-107371061D01*
X94202413Y-107313306D01*
X94224855Y-107304010D01*
X94342104Y-107268442D01*
X94365928Y-107263704D01*
X94484614Y-107252015D01*
X94493939Y-107251097D01*
X94506092Y-107250500D01*
X94573554Y-107250500D01*
X94574514Y-107250434D01*
X104475539Y-107241917D01*
X104542594Y-107261544D01*
X104588394Y-107314309D01*
X104598397Y-107383458D01*
X104586129Y-107422211D01*
X104551915Y-107489359D01*
X104493548Y-107668997D01*
X104464000Y-107855552D01*
X104464000Y-108044447D01*
X104493548Y-108231002D01*
X104551914Y-108410637D01*
X104637666Y-108578933D01*
X104656116Y-108604328D01*
X105314000Y-107946444D01*
X105314000Y-107996078D01*
X105337852Y-108085095D01*
X105383930Y-108164905D01*
X105449095Y-108230070D01*
X105528905Y-108276148D01*
X105617922Y-108300000D01*
X105710078Y-108300000D01*
X105799095Y-108276148D01*
X105878905Y-108230070D01*
X105944070Y-108164905D01*
X105990148Y-108085095D01*
X106014000Y-107996078D01*
X106014000Y-107946446D01*
X106671882Y-108604328D01*
X106671883Y-108604328D01*
X106690331Y-108578937D01*
X106776085Y-108410637D01*
X106834451Y-108231002D01*
X106864000Y-108044447D01*
X106864000Y-107855552D01*
X106834451Y-107668997D01*
X106776084Y-107489360D01*
X106740830Y-107420170D01*
X106727933Y-107351500D01*
X106754209Y-107286760D01*
X106811315Y-107246502D01*
X106851205Y-107239874D01*
X109905128Y-107237247D01*
X109972185Y-107256874D01*
X110017985Y-107309639D01*
X110027988Y-107378788D01*
X110008337Y-107430137D01*
X109945993Y-107523441D01*
X109945983Y-107523459D01*
X109878106Y-107687332D01*
X109878103Y-107687341D01*
X109843500Y-107861304D01*
X109843500Y-108038695D01*
X109878103Y-108212658D01*
X109878106Y-108212667D01*
X109945983Y-108376540D01*
X109945990Y-108376553D01*
X110044535Y-108524034D01*
X110044538Y-108524038D01*
X110169961Y-108649461D01*
X110169965Y-108649464D01*
X110317446Y-108748009D01*
X110317459Y-108748016D01*
X110440363Y-108798923D01*
X110481334Y-108815894D01*
X110481336Y-108815894D01*
X110481341Y-108815896D01*
X110655304Y-108850499D01*
X110655307Y-108850500D01*
X110655309Y-108850500D01*
X110832693Y-108850500D01*
X110832694Y-108850499D01*
X110890682Y-108838964D01*
X111006658Y-108815896D01*
X111006661Y-108815894D01*
X111006666Y-108815894D01*
X111170547Y-108748013D01*
X111318035Y-108649464D01*
X111443464Y-108524035D01*
X111542013Y-108376547D01*
X111609894Y-108212666D01*
X111619395Y-108164905D01*
X111644499Y-108038695D01*
X111644500Y-108038693D01*
X111644500Y-107861306D01*
X111644499Y-107861304D01*
X111609896Y-107687341D01*
X111609893Y-107687332D01*
X111542016Y-107523459D01*
X111542014Y-107523455D01*
X111542013Y-107523453D01*
X111478698Y-107428696D01*
X111457820Y-107362019D01*
X111476304Y-107294639D01*
X111528283Y-107247948D01*
X111581690Y-107235805D01*
X117743859Y-107230505D01*
X117756109Y-107231101D01*
G37*
%TD.AperFunction*%
%TD*%
M02*
