%TF.GenerationSoftware,KiCad,Pcbnew,9.0.3*%
%TF.CreationDate,2025-10-13T14:24:37+01:00*%
%TF.ProjectId,Charging circuit,43686172-6769-46e6-9720-636972637569,rev?*%
%TF.SameCoordinates,Original*%
%TF.FileFunction,Paste,Top*%
%TF.FilePolarity,Positive*%
%FSLAX46Y46*%
G04 Gerber Fmt 4.6, Leading zero omitted, Abs format (unit mm)*
G04 Created by KiCad (PCBNEW 9.0.3) date 2025-10-13 14:24:37*
%MOMM*%
%LPD*%
G01*
G04 APERTURE LIST*
G04 Aperture macros list*
%AMRoundRect*
0 Rectangle with rounded corners*
0 $1 Rounding radius*
0 $2 $3 $4 $5 $6 $7 $8 $9 X,Y pos of 4 corners*
0 Add a 4 corners polygon primitive as box body*
4,1,4,$2,$3,$4,$5,$6,$7,$8,$9,$2,$3,0*
0 Add four circle primitives for the rounded corners*
1,1,$1+$1,$2,$3*
1,1,$1+$1,$4,$5*
1,1,$1+$1,$6,$7*
1,1,$1+$1,$8,$9*
0 Add four rect primitives between the rounded corners*
20,1,$1+$1,$2,$3,$4,$5,0*
20,1,$1+$1,$4,$5,$6,$7,0*
20,1,$1+$1,$6,$7,$8,$9,0*
20,1,$1+$1,$8,$9,$2,$3,0*%
G04 Aperture macros list end*
%ADD10RoundRect,0.225000X-0.225000X-0.375000X0.225000X-0.375000X0.225000X0.375000X-0.225000X0.375000X0*%
%ADD11RoundRect,0.250000X-0.475000X0.250000X-0.475000X-0.250000X0.475000X-0.250000X0.475000X0.250000X0*%
%ADD12R,0.400000X0.480000*%
%ADD13RoundRect,0.250000X-0.262500X-0.450000X0.262500X-0.450000X0.262500X0.450000X-0.262500X0.450000X0*%
%ADD14RoundRect,0.250000X0.450000X-0.262500X0.450000X0.262500X-0.450000X0.262500X-0.450000X-0.262500X0*%
%ADD15R,0.600000X1.150000*%
%ADD16R,0.300000X1.150000*%
%ADD17R,2.180000X2.000000*%
%ADD18RoundRect,0.250000X1.000000X0.650000X-1.000000X0.650000X-1.000000X-0.650000X1.000000X-0.650000X0*%
%ADD19RoundRect,0.150000X-0.512500X-0.150000X0.512500X-0.150000X0.512500X0.150000X-0.512500X0.150000X0*%
%ADD20RoundRect,0.250000X0.262500X0.450000X-0.262500X0.450000X-0.262500X-0.450000X0.262500X-0.450000X0*%
%ADD21RoundRect,0.150000X0.587500X0.150000X-0.587500X0.150000X-0.587500X-0.150000X0.587500X-0.150000X0*%
G04 APERTURE END LIST*
D10*
%TO.C,D2*%
X108586000Y-116332000D03*
X111886000Y-116332000D03*
%TD*%
D11*
%TO.C,C1*%
X113030000Y-107574000D03*
X113030000Y-109474000D03*
%TD*%
D12*
%TO.C,D1*%
X110744000Y-123902000D03*
X110744000Y-125222000D03*
%TD*%
D13*
%TO.C,R2*%
X106887000Y-123952000D03*
X108712000Y-123952000D03*
%TD*%
D14*
%TO.C,R6*%
X99314000Y-113030000D03*
X99314000Y-111205000D03*
%TD*%
D15*
%TO.C,USB1*%
X102114000Y-127195000D03*
X108514000Y-127195000D03*
X102914000Y-127195000D03*
X107714000Y-127195000D03*
D16*
X104064000Y-127195000D03*
X105064000Y-127195000D03*
X105564000Y-127195000D03*
X106564000Y-127195000D03*
X107064000Y-127195000D03*
X106064000Y-127195000D03*
X104564000Y-127195000D03*
X103564000Y-127195000D03*
D17*
X100204000Y-127695000D03*
X100204000Y-131615000D03*
X110424000Y-127695000D03*
X110424000Y-131615000D03*
%TD*%
D18*
%TO.C,D3*%
X117348000Y-112268000D03*
X113348000Y-112268000D03*
%TD*%
D13*
%TO.C,R3*%
X101807000Y-108966000D03*
X103632000Y-108966000D03*
%TD*%
D11*
%TO.C,C3*%
X102108000Y-119446000D03*
X102108000Y-121346000D03*
%TD*%
%TO.C,C4*%
X112014000Y-118684000D03*
X112014000Y-120584000D03*
%TD*%
D19*
%TO.C,U1*%
X101732500Y-113350000D03*
X101732500Y-114300000D03*
X101732500Y-115250000D03*
X104007500Y-115250000D03*
X104007500Y-113350000D03*
%TD*%
D11*
%TO.C,C2*%
X108000000Y-118600000D03*
X108000000Y-120500000D03*
%TD*%
D20*
%TO.C,R1*%
X103782500Y-123952000D03*
X101957500Y-123952000D03*
%TD*%
D21*
%TO.C,Q1*%
X110490000Y-113152000D03*
X110490000Y-111252000D03*
X108615000Y-112202000D03*
%TD*%
M02*
